<?xml version="1.0" encoding="utf-8"?>
<!-- Generator: Adobe Illustrator 16.0.0, SVG Export Plug-In . SVG Version: 6.00 Build 0)  -->
<!DOCTYPE svg PUBLIC "-//W3C//DTD SVG 1.1//EN" "http://www.w3.org/Graphics/SVG/1.1/DTD/svg11.dtd">
<svg version="1.1" id="Layer_1" xmlns="http://www.w3.org/2000/svg" xmlns:xlink="http://www.w3.org/1999/xlink" x="0px" y="0px"
	 width="378.333px" height="448.742px" viewBox="0 0 378.333 448.742" enable-background="new 0 0 378.333 448.742"
	 xml:space="preserve">
<g id="Layer_1_1_" display="none">
	
		<image display="inline" overflow="visible" enable-background="new    " width="1334" height="1301" xlink:href="144DC713.jpeg"  transform="matrix(0.3382 0 0 0.3397 -13.7568 -1)">
	</image>
</g>
<g id="Layer_7" display="none">
	<rect x="-179.056" y="-133.892" display="inline" width="922.455" height="809.959"/>
</g>
<g id="Layer_4">
	<g>
		<path fill="#141C1E" d="M154.462,270.882c0,6.405-9.608,28.824,9.607,32.025c19.216,3.202,19.216,3.202,41.635,3.202
			c22.418,0,44.836-3.202,44.836-22.418c0-19.215-41.635-3.202-41.635-3.202s-32.026-3.202-35.229-3.202
			C170.473,277.287,154.462,270.882,154.462,270.882z"/>
		<g>
			<path fill="#4A4A4A" d="M196.096,306.109v6.051c0,0,2.432,1.779,4.744,1.779c2.313,0,4.982-2.076,4.982-2.076v-6.938
				L196.096,306.109z"/>
			<path fill="none" d="M196.096,302.907"/>
			<path fill="#4A4A4A" d="M195.562,311.391c-0.06,0.178-0.949,0.059-0.949,1.244c0,1.187,0,17.674,0,17.674
				s1.453,2.609,6.687,2.609c5.236,0,6.242-2.372,6.242-2.372v-18.089c0,0-0.83-1.066-3.32-1.066
				C201.73,311.391,195.562,311.391,195.562,311.391z"/>
			<polygon fill="#4A4A4A" points="196.096,342.229 198.765,375.68 203.747,375.68 204.725,342.229 			"/>
			<path fill="#4A4A4A" d="M209.084,329.241c0,0,17.733-0.238,23.901,3.677l0.979,4.98l-1.453,0.595h-3.678l-0.476-2.017
				l-12.452,0.83l-7.712-3.441L209.084,329.241z"/>
			<path fill="#4A4A4A" d="M191.084,329.241c0,0-17.733-0.238-23.901,3.677l-0.979,4.98l1.453,0.595h3.677l0.475-2.017l12.455,0.83
				l7.71-3.441L191.084,329.241z"/>
			<path fill="#4A4A4A" d="M191.975,341.695c0,0,3.32-1.514,3.32,2.224c0,0,3.974,2.847,10.527,0c0,0-0.826-3.946,4.418-1.688
				c5.245,2.256,7.383-6.496,7.295-6.763c-0.09-0.267-3.647-5.069-3.647-5.069l-4.257-1.159l-20.031,0.005l-3.201,3.111l1.246,7.026
				L191.975,341.695z"/>
			<g>
				<path fill="#848484" d="M204.028,376.868c0,0-3.914,1.823-3.914,6.983s5.428,3.914,5.916-2.18
					C206.03,381.673,207.231,376.868,204.028,376.868z"/>
				<path fill="#848484" d="M197.892,375c0,0-3.915,1.823-3.915,6.982c0,5.16,5.427,3.914,5.916-2.178
					C199.893,379.805,201.094,375,197.892,375z"/>
				<path fill="#848484" d="M200.915,384.563c-0.756,0.051-5.959-0.711-5.959-0.711l2.937-8.853c0,0,5.403-1.408,7.372,2.21
					C207.231,380.827,200.915,384.563,200.915,384.563z"/>
			</g>
			<g>
				<path fill="#848484" d="M258.47,360.291c0,0-3.914,1.822-3.914,6.982s5.428,3.914,5.916-2.18
					C260.472,365.096,261.672,360.291,258.47,360.291z"/>
				<path fill="#848484" d="M252.333,358.423c0,0-3.914,1.823-3.914,6.983c0,5.158,5.426,3.914,5.916-2.18
					C254.334,363.227,255.538,358.423,252.333,358.423z"/>
				<path fill="#848484" d="M255.357,367.986c-0.758,0.05-5.961-0.713-5.961-0.713l2.938-8.852c0,0,5.403-1.408,7.371,2.21
					C261.672,364.25,255.357,367.986,255.357,367.986z"/>
			</g>
			<g>
				<path fill="#848484" d="M148.515,360.825c0,0-3.915,1.823-3.915,6.981c0,5.16,5.427,3.916,5.916-2.179
					C150.517,365.629,151.717,360.825,148.515,360.825z"/>
				<path fill="#848484" d="M142.378,358.956c0,0-3.915,1.823-3.915,6.983s5.427,3.914,5.916-2.18
					C144.38,363.761,145.581,358.956,142.378,358.956z"/>
				<path fill="#848484" d="M145.401,368.52c-0.757,0.051-5.96-0.711-5.96-0.711l2.938-8.853c0,0,5.404-1.407,7.372,2.21
					C151.717,364.783,145.401,368.52,145.401,368.52z"/>
			</g>
			<g>
				<path fill="#4A4A4A" d="M170.119,339.35c0,0-3.914,1.823-3.914,6.983c0,5.159,5.426,3.914,5.916-2.181
					C172.121,344.152,173.322,339.35,170.119,339.35z"/>
				<path fill="#848484" d="M163.982,337.48c0,0-3.914,1.824-3.914,6.983s5.426,3.914,5.916-2.18
					C165.984,342.285,167.185,337.48,163.982,337.48z"/>
				<path fill="#848484" d="M167.005,347.044c-0.757,0.052-5.96-0.711-5.96-0.711l2.938-8.853c0,0,5.405-1.407,7.372,2.209
					C173.322,343.309,167.005,347.044,167.005,347.044z"/>
			</g>
			<g>
				<path fill="#4A4A4A" d="M234.349,340.418c0,0-3.914,1.823-3.914,6.982c0,5.16,5.428,3.914,5.916-2.18
					C236.351,345.223,237.551,340.418,234.349,340.418z"/>
				<path fill="#4A4A4A" d="M228.211,338.55c0,0-3.914,1.823-3.914,6.983s5.429,3.914,5.916-2.18
					C230.213,343.354,231.417,338.55,228.211,338.55z"/>
				<path fill="#848484" d="M231.236,348.113c-0.758,0.051-5.961-0.713-5.961-0.713l2.938-8.852c0,0,5.406-1.408,7.373,2.21
					C237.551,344.377,231.236,348.113,231.236,348.113z"/>
			</g>
			<path fill="#4A4A4A" d="M209.084,342.229c2.847,1.778,42.703,12.455,43.058,13.521s1.065,4.271,1.065,4.271h4.746l0.889-0.771
				l-1.541-7.234l-45.785-20.164L209.084,342.229z"/>
			<path fill="#4A4A4A" d="M192.715,341.636c-2.846,1.779-42.701,12.455-43.057,13.522c-0.356,1.066-1.067,4.271-1.067,4.271h-4.745
				l-0.89-0.771l1.542-7.235l45.786-20.164L192.715,341.636z"/>
		</g>
	</g>
</g>
<g id="Layer_5">
	<path fill="#032942" d="M159.083,327c0.883,1.098,2.453,2.005,3.655,2.568c1.62,0.762,2.721,0.22,4.25-0.068
		c1.838-0.346,3.245,0.652,4.379,1.936c1.2,1.355,1.56,1.461,3.31,0.875c2.927-0.984,6.199,0.188,9.128-0.612
		c1.59-0.437,2.136-1.528,3.987-0.771c1.208,0.493,0.824,0.943,2.005,0.162c0.427-0.282,0.845-1.034,1.345-1.129
		c0.696-0.13,1.131,0.242,1.368,0.896c0.148,0.174,0.449,0.412,0.676,0.646c0.223-3.509-1.298-5.38-3.456-7.825
		c-1.751-1.985-2.299-4.973-4.866-6.147c-2.806-1.282-6.271-1.026-9.375-1.026c-3.542,0-6.136-0.106-7.844,3.345
		c-0.795,1.606-1.71,4.025-3.215,4.995c-0.894,0.576-2.123,0.595-3,1.058c-1.032,0.543-1.244,1.44-1.847,2.229"/>
	<path fill="#032942" d="M247.681,324.09c-0.884,1.098-2.453,2.006-3.654,2.569c-1.62,0.761-2.721,0.219-4.251-0.069
		c-1.838-0.346-3.244,0.653-4.379,1.936c-1.2,1.355-1.561,1.461-3.311,0.875c-2.928-0.984-6.198,0.188-9.127-0.612
		c-1.59-0.437-2.137-1.528-3.987-0.771c-1.207,0.492-0.824,0.942-2.007,0.162c-0.426-0.283-0.844-1.035-1.344-1.13
		c-0.697-0.13-1.131,0.242-1.367,0.896c-0.148,0.174-0.448,0.412-0.676,0.646c-0.224-3.509,1.297-5.38,3.455-7.824
		c1.752-1.985,2.299-4.974,4.866-6.147c2.806-1.283,6.271-1.027,9.375-1.027c3.542,0,6.136-0.106,7.845,3.345
		c0.795,1.606,1.709,4.025,3.215,4.996c0.894,0.575,2.123,0.594,3,1.057c1.031,0.544,1.242,1.441,1.847,2.229"/>
	<path fill="#FCC78B" d="M221.081,341.167c0.537,3.754,1.711,16.712,2.785,20.36c1.035,3.52,0.856,9.408,2.449,12.724
		c1.723,3.582,4.031,6.498,8.586,3.699c4.059-2.493,4.67-8.298,4.117-12.56c-0.973-7.486-1.018-15.008-1.018-22.976
		c0-5.534,0.023-10.726,1.018-16c0.486-2.586,0.055-4.999-0.035-7.474c-0.12-3.32,0.965-4.205,2.23-6.975
		c-4.199,0.129-8.43-0.156-12.629,0.031c-3.316,0.148-6.441-6.241-8.889-3.999c-3.256,2.985-2.227,11.209-0.365,14.153
		c2.148,3.397,0.174,11.496,1.002,15.18"/>
	<path fill="#FFFFFF" d="M222.708,371.813c-0.203,1.058-0.136,2.152-0.25,3.188c-0.125,1.125-1.033,3.351-0.348,4.278
		c1.309,1.771,2.489,3.432,3.242,5.363c0.365,0.938,0.568,1.918,0.568,2.977c0,0.906-0.616,2.35-0.375,3.093
		c0.334,1.019,1.513,2.149,2.783,2.278c1.43,0.146,2.486,0.385,3.967,0.334c1.584-0.055,5.279,2.033,6.834,1
		c1.256-0.838,0.537-4.693,0.666-5.719c0.293-2.309-0.793-4.186-1.068-6.322c-0.294-2.279,0.93-4.057,1.458-6.188
		c0.501-2.02,0.394-4.21,0.36-6.322c-0.008-0.502,0.074-1.139-0.125-1.613c-0.201-0.481-0.41-0.618-0.723-1.094
		c-0.182-0.279-0.018-1.17-0.359-1.354c-0.563-0.304-1.357,0.088-1.945,0.271c-2.568,0.795-5.18,0.978-8.064,1.174
		c-1.492,0.102-3.025-0.068-4.5-0.055"/>
	<path fill="#10416B" d="M211.083,294c-1.307,5.936-2.252,12.795-0.166,18.688c0.922,2.606,2.24,4.761,2.43,7.5
		c0.091,1.31,0.279,3.246,0,4.52c-0.318,1.457-1.42,2.391-0.987,4.018c2.849,0.606,3.97-7.184,6.724-7.725
		c2.787-0.548,6.737-1.102,9.521-0.583c2.84,0.526,8.353,1.938,11.397,1.235c1.287-0.295,3.127,1.541,4.5,1.348
		c1.353-0.191,0.817,2.479,1.912,1.961c2.475-1.169,0.025-5.564-0.219-7.322c-0.428-3.076,0.832-6.271-0.475-9.279
		c-1.271-2.931-3.657-4.287-2.004-7.678c0.603-1.233,1.84-1.154,1.641-2.869c-0.154-1.334-3.043-3.664-4.068-4.508
		c-2.14-1.76-4.99-3.785-7.881-3.322c-2.921,0.467-5.438,1.5-8.281,1.992c-2.336,0.401-4.91,1.19-7.48,1.539
		c-1.906,0.258-5.378,0.008-7.063,0.736"/>
	<path fill="#FCC78B" d="M184.877,344.088c-0.537,3.754-1.711,16.712-2.785,20.36c-1.036,3.52-0.857,9.407-2.45,12.724
		c-1.722,3.582-4.031,6.498-8.586,3.699c-4.059-2.493-4.67-8.298-4.117-12.561c0.972-7.484,1.018-15.006,1.018-22.975
		c0-5.534-0.024-10.727-1.018-16c-0.486-2.586-0.055-4.999,0.035-7.473c0.12-3.321-0.964-4.206-2.231-6.975
		c4.2,0.129,8.43-0.158,12.63,0.03c3.316,0.147,6.441-6.241,8.888-3.999c3.256,2.985,2.227,11.209,0.365,14.153
		c-2.148,3.397-0.173,11.495-1.002,15.18"/>
	<path fill="#FFFFFF" d="M183.248,374.732c0.203,1.058,0.136,2.152,0.25,3.188c0.125,1.125,1.034,3.351,0.348,4.279
		c-1.308,1.771-2.489,3.431-3.242,5.362c-0.366,0.938-0.569,1.918-0.569,2.977c0,0.906,0.617,2.35,0.375,3.093
		c-0.333,1.019-1.512,2.149-2.783,2.279c-1.429,0.145-2.486,0.384-3.967,0.333c-1.584-0.054-5.279,2.034-6.833,1
		c-1.256-0.837-0.537-4.693-0.667-5.719c-0.293-2.309,0.794-4.186,1.069-6.322c0.294-2.279-0.929-4.057-1.458-6.188
		c-0.501-2.02-0.393-4.209-0.361-6.322c0.008-0.502-0.074-1.139,0.125-1.613c0.201-0.48,0.411-0.618,0.723-1.094
		c0.182-0.279,0.018-1.17,0.359-1.354c0.564-0.304,1.358,0.088,1.946,0.271c2.569,0.795,5.18,0.978,8.065,1.174
		c1.492,0.102,3.025-0.068,4.5-0.055"/>
	<path fill="#10416B" d="M194.874,296.921c1.307,5.937,2.252,12.795,0.166,18.688c-0.922,2.605-2.24,4.76-2.43,7.5
		c-0.091,1.309-0.279,3.244,0,4.519c0.318,1.457,1.42,2.392,0.987,4.019c-2.849,0.605-5.434-13.84-16.244-12.521
		c-10.415,1.271-16.715,9.273-17.81,8.757c-2.474-1.169-0.025-5.565,0.219-7.321c0.428-3.078-0.832-6.271,0.475-9.279
		c1.271-2.932,3.657-4.288,2.003-7.68c-0.602-1.232-1.839-1.152-1.64-2.869c0.154-1.332,3.043-3.662,4.068-4.506
		c2.14-1.761,4.991-3.785,7.881-3.323c2.921,0.467,5.437,1.501,8.281,1.991c2.337,0.402,4.91,1.191,7.481,1.539
		c1.906,0.258,5.378,0.008,7.063,0.737"/>
	<g>
		<g>
			<defs>
				<path id="SVGID_2_" d="M183.248,374.732c0.203,1.058,0.136,2.152,0.25,3.188c0.125,1.125,1.034,3.351,0.348,4.279
					c-1.308,1.771-2.489,3.431-3.242,5.362c-0.366,0.938-0.569,1.918-0.569,2.977c0,0.906,0.617,2.35,0.375,3.093
					c-0.333,1.019-1.512,2.149-2.783,2.279c-1.429,0.145-2.486,0.384-3.967,0.333c-1.584-0.054-5.279,2.034-6.833,1
					c-1.256-0.837-0.537-4.693-0.667-5.719c-0.293-2.309,0.794-4.186,1.069-6.322c0.294-2.279-0.929-4.057-1.458-6.188
					c-0.501-2.02-0.393-4.209-0.361-6.322c0.008-0.502-0.074-1.139,0.125-1.613c0.201-0.48,0.411-0.618,0.723-1.094
					c0.182-0.279,0.018-1.17,0.359-1.354c0.564-0.304,1.358,0.088,1.946,0.271c2.569,0.795,5.18,0.978,8.065,1.174
					c1.492,0.102,3.025-0.068,4.5-0.055"/>
			</defs>
			<clipPath id="SVGID_3_">
				<use xlink:href="#SVGID_2_"  overflow="visible"/>
			</clipPath>
			<path clip-path="url(#SVGID_3_)" fill="#6D6D6D" d="M180.583,390.375c-2.21,1.068-22.063,1.125-17.447,8.25
				c0.979,1.512,8.396-0.193,9.205,1.125c0.641,1.045,4.95-3.777,5.734-2.787c2.858,3.608,5.999-0.586,6.429-3.837
				c0.156-1.179,0.15-3.211-0.324-4.255c-0.614-1.354-1.45-1.999-1.513-3.704"/>
		</g>
	</g>
	<g>
		<g>
			<defs>
				<path id="SVGID_4_" d="M222.708,371.813c-0.203,1.058-0.136,2.152-0.25,3.188c-0.125,1.125-1.033,3.351-0.348,4.278
					c1.309,1.771,2.489,3.432,3.242,5.363c0.365,0.938,0.568,1.918,0.568,2.977c0,0.906-0.616,2.35-0.375,3.093
					c0.334,1.019,1.513,2.149,2.783,2.278c1.43,0.146,2.486,0.385,3.967,0.334c1.584-0.055,5.279,2.033,6.834,1
					c1.256-0.838,0.537-4.693,0.666-5.719c0.293-2.309-0.793-4.186-1.068-6.322c-0.294-2.279,0.93-4.057,1.458-6.188
					c0.501-2.02,0.394-4.21,0.36-6.322c-0.008-0.502,0.074-1.139-0.125-1.613c-0.201-0.481-0.41-0.618-0.723-1.094
					c-0.182-0.279-0.018-1.17-0.359-1.354c-0.563-0.304-1.357,0.088-1.945,0.271c-2.568,0.795-5.18,0.978-8.064,1.174
					c-1.492,0.102-3.025-0.068-4.5-0.055"/>
			</defs>
			<clipPath id="SVGID_6_">
				<use xlink:href="#SVGID_4_"  overflow="visible"/>
			</clipPath>
			<path clip-path="url(#SVGID_6_)" fill="#6D6D6D" d="M222.024,396.49c0.105-1.715-0.501-3.875-1.054-5.6
				c-0.568-1.773-2.361-3.416,0.94-4.121c2.625-0.562,6.248,0.34,9.237,0.543c4.433,0.306,4.858,0.758,7.819,2.867
				c2.346,1.67,6.451,1.199,3.814,3.822c-1.187,1.182-4.632,2.525-6.805,2.865c-3.094,0.484-5.139-0.711-7.811-1.734
				c-1.617-0.619-6.219-2.15-6.793-0.236"/>
		</g>
	</g>
</g>
<g id="Layer_2">
	<path fill="#C1C1C0" d="M82.511,254.5L85.795,388c0,0,1.642,7,4.104,7s2.463-6,2.463-7.5s6.293-141,6.293-141L82.511,254.5z"/>
	<path fill="#C1C1C0" d="M301.2,249.5l3.614,133.5c0,0,1.806,7,4.517,7s2.711-6,2.711-7.5s6.926-141,6.926-141L301.2,249.5z"/>
	<path fill="#C1C1C0" d="M330.833,292.5l3.561,133.5c0,0,1.779,7,4.449,7c2.668,0,2.668-6,2.668-7.5s6.822-141,6.822-141
		L330.833,292.5z"/>
	<g>
		<path fill="#FFFFFF" stroke="#000000" stroke-miterlimit="10" d="M140.736,252.807h76.16v16.778l-76.16-0.001
			c0,0,2.108-3.623,2.108-8.387C142.844,256.432,140.736,252.807,140.736,252.807z"/>
		<g>
			<path fill="#00A651" d="M136.673,273.832c-1.268,0-2.299-1.031-2.299-2.299s1.031-2.299,2.299-2.299h76.779
				c0.463-0.301,2.28-1.918,2.28-8.743c0-5.214-1.2-8.581-3.06-8.581c-1.129,0.005-73.75,1.928-74.479,1.947l0,0
				c-1.296,0-2.326-1.006-2.359-2.239c-0.017-0.612,0.208-1.195,0.631-1.642c0.423-0.445,0.993-0.701,1.606-0.718
				c0.731-0.02,73.563-1.948,74.6-1.948c2.303,0,7.658,1.284,7.658,13.181c0,11.997-5.215,13.206-6.26,13.325l-0.232,0.017
				L136.673,273.832z"/>
			<path d="M212.672,248.313c2.002,0,6.658,1.187,6.658,12.18c0,11.384-4.822,12.27-5.373,12.333l-0.147,0.009l-77.137-0.001
				c-0.718,0-1.299-0.582-1.299-1.299c0-0.72,0.581-1.3,1.299-1.3h77.013c0.289-0.104,3.047-1.276,3.047-9.742
				c0-6.001-1.518-9.581-4.061-9.581c-1.147,0.005-73.771,1.928-74.503,1.946c-0.012,0-0.022,0-0.035,0
				c-0.7,0-1.279-0.561-1.298-1.266c-0.02-0.715,0.548-1.313,1.265-1.332C141.105,250.18,211.693,248.313,212.672,248.313
				 M212.672,246.313c-1.043,0-73.895,1.93-74.625,1.948c-0.881,0.023-1.699,0.39-2.305,1.027c-0.608,0.64-0.93,1.478-0.905,2.358
				c0.046,1.77,1.525,3.211,3.297,3.211h0.026l0.063-0.002c0.726-0.019,73.141-1.937,74.46-1.945c0.636,0,2.05,1.908,2.05,7.581
				c0,4.991-1.045,7.126-1.631,7.743h-76.429c-1.819,0-3.299,1.479-3.299,3.299s1.479,3.299,3.299,3.299l77.137,0.001h0.06
				l0.06-0.004l0.147-0.009l0.057-0.004l0.056-0.006c1.192-0.138,7.144-1.475,7.144-14.319
				C221.333,247.693,215.277,246.313,212.672,246.313L212.672,246.313z"/>
		</g>
	</g>
	<g>
		<path fill="#FFFFFF" stroke="#000000" stroke-miterlimit="10" d="M192.446,262.516h76.16v16.778l-76.16-0.001
			c0,0,2.108-3.623,2.108-8.387C194.554,266.141,192.446,262.516,192.446,262.516z"/>
		<g>
			<path fill="#00A651" d="M188.383,283.541c-1.268,0-2.299-1.031-2.299-2.299s1.031-2.299,2.299-2.299h76.78
				c0.463-0.301,2.279-1.918,2.279-8.743c0-5.214-1.201-8.581-3.061-8.581c-1.129,0.005-73.748,1.928-74.478,1.947l0,0
				c-1.296,0-2.326-1.006-2.359-2.239c-0.017-0.612,0.208-1.195,0.631-1.642c0.423-0.445,0.993-0.701,1.606-0.718
				c0.731-0.021,73.563-1.948,74.6-1.948c2.304,0,7.658,1.284,7.658,13.181c0,11.997-5.213,13.206-6.259,13.325l-0.233,0.017
				L188.383,283.541z"/>
			<path d="M264.383,258.021c2.002,0,6.658,1.187,6.658,12.18c0,11.384-4.822,12.27-5.373,12.333l-0.148,0.009l-77.137-0.001
				c-0.718,0-1.299-0.582-1.299-1.299c0-0.72,0.581-1.3,1.299-1.3h77.013c0.289-0.104,3.047-1.276,3.047-9.742
				c0-6.001-1.517-9.581-4.06-9.581c-1.148,0.005-73.771,1.928-74.504,1.946c-0.012,0-0.022,0-0.035,0
				c-0.7,0-1.279-0.561-1.298-1.266c-0.02-0.715,0.548-1.313,1.265-1.332C192.815,259.889,263.403,258.021,264.383,258.021
				 M264.383,256.021c-1.045,0-73.896,1.93-74.627,1.948c-0.88,0.023-1.698,0.39-2.304,1.027c-0.608,0.64-0.93,1.478-0.905,2.358
				c0.046,1.77,1.525,3.211,3.297,3.211h0.025l0.063-0.002c0.726-0.019,73.142-1.937,74.46-1.945c0.636,0,2.05,1.908,2.05,7.581
				c0,4.991-1.045,7.126-1.631,7.743h-76.429c-1.819,0-3.299,1.479-3.299,3.299s1.479,3.299,3.299,3.299l77.137,0.001h0.061
				l0.059-0.004l0.148-0.009l0.055-0.004l0.057-0.006c1.191-0.138,7.145-1.475,7.145-14.319
				C273.042,257.402,266.987,256.021,264.383,256.021L264.383,256.021z"/>
		</g>
	</g>
	<path fill="#7F7F7F" stroke="#000000" stroke-width="3" stroke-miterlimit="10" d="M12.667,405.666
		c-1.596,1.25-10.333,9.668-3,11.334s74,0.666,78-2.334s-15-11-21-17S32.667,389.999,12.667,405.666z"/>
	<path fill="#7F7F7F" stroke="#000000" stroke-width="3" stroke-miterlimit="10" d="M32.667,389.999c0,0-4.333,9.667,9,9.667
		s13.551,0.894,15-2.332c1.449-3.227,6.333-6.17-2.167-7.335S34.5,388.997,32.667,389.999z"/>
	<g>
		<path fill="#7F7F7F" d="M42.243,391.626c-0.13-0.719-13.113-72.872-18.053-152.808c-2.918-47.224-2.54-88.113,1.125-121.535
			c4.63-42.229,14.602-72.777,29.636-90.796C65.952,13.303,79.779,6.579,96.047,6.501c0.59-0.087,1.719-0.214,3.293-0.214
			c6.787,0,24.224,2.513,39.52,25.791l0.824,1.254l-5.85,3.843l-0.824-1.253c-13.43-20.437-27.984-22.644-33.619-22.644
			c-1.472,0-2.336,0.148-2.429,0.165l-0.129,0.018l-0.431,0.04h-0.068C82.114,13.5,70,19.378,60.325,30.972
			C34.763,61.608,24.684,133.331,31.176,238.389c4.942,79.959,17.825,151.273,17.954,151.984l0.269,1.477l-6.888,1.254
			L42.243,391.626z"/>
		<path d="M99.34,7.787c6.983,0,23.506,2.652,38.266,25.115l-3.343,2.196c-13.784-20.977-28.838-23.32-34.873-23.32
			c-1.569,0-2.526,0.158-2.695,0.188L96.333,12c-14.685,0-27.188,6.06-37.16,18.011C33.361,60.946,23.162,133.034,29.679,238.48
			c4.941,79.943,17.846,151.447,17.976,152.16l-3.936,0.717c-0.13-0.715-13.077-72.453-18.032-152.631
			c-2.913-47.137-2.537-87.94,1.119-121.279c4.598-41.931,14.455-72.211,29.296-89.999C66.832,14.589,80.31,8.046,96.164,8
			C96.618,7.929,97.724,7.787,99.34,7.787 M99.34,4.787c-1.575,0-2.743,0.122-3.404,0.214c-16.687,0.107-30.862,7.013-42.137,20.525
			c-15.227,18.25-25.312,49.066-29.975,91.594c-3.674,33.507-4.055,74.483-1.131,121.792c4.944,80.011,17.944,152.262,18.075,152.98
			l0.536,2.955l2.954-0.539l3.936-0.717l2.952-0.537l-0.538-2.951c-0.129-0.711-12.996-71.941-17.933-151.81
			c-6.47-104.666,3.49-176.024,28.802-206.361C70.853,20.697,82.58,15,96.333,15h0.137l0.136-0.013l0.363-0.033l0.13-0.012
			l0.128-0.023c0.032-0.006,0.799-0.141,2.163-0.141c5.392,0,19.337,2.141,32.365,21.967l1.647,2.507l2.507-1.647l3.343-2.196
			l2.507-1.647l-1.647-2.507C124.417,7.366,106.371,4.787,99.34,4.787L99.34,4.787z"/>
	</g>
	
		<path fill="#7F7F7F" stroke="#000000" stroke-width="3" stroke-linecap="round" stroke-linejoin="round" stroke-miterlimit="10" d="
		M126.188,84.171c0,0,0.56-41.667,24.227-41.667s33.167,17.292,33.167,17.292s-36.334,3.375-56.667,24.375"/>
	<path fill="none" d="M126.915,87.296c0,0,15.333-21.375,56-27.5"/>
	<g>
		<path d="M180.697,61.719c2.32,0,3.573,0.387,3.343,1.078c-1.125,3.375-14.375,16.5-22.5,19.875s-21.375,7.5-30.125,7.5
			s-1.773-6-1.773-6C146.526,67.567,171.678,61.719,180.697,61.719 M180.697,59.719c-9.09,0-34.894,5.788-52.412,22.981
			c-1.053,0.916-4.107,3.889-3.065,6.699c1.028,2.772,4.917,2.772,6.194,2.772c9.842,0,24.049-4.811,30.892-7.653
			c8.474-3.52,22.225-16.875,23.63-21.09c0.253-0.76,0.132-1.566-0.333-2.21C184.847,60.167,183.379,59.719,180.697,59.719
			L180.697,59.719z"/>
	</g>
	<path fill="#C1C1C0" d="M55.083,300.5L58.541,434c0,0,1.729,7,4.322,7c2.593,0,2.593-6,2.593-7.5s6.627-141,6.627-141L55.083,300.5
		z"/>
	<g>
		<g>
			<path id="SVGID_5_" fill="#7F7F7F" d="M129.642,84.171c0,0-6.977,6,1.773,6s22-4.125,30.125-7.5s21.375-16.5,22.5-19.875
				S150.869,63.296,129.642,84.171z"/>
		</g>
		<g>
			<defs>
				<path id="SVGID_7_" d="M129.642,84.171c0,0-6.977,6,1.773,6s22-4.125,30.125-7.5s21.375-16.5,22.5-19.875
					S150.869,63.296,129.642,84.171z"/>
			</defs>
			<clipPath id="SVGID_8_">
				<use xlink:href="#SVGID_7_"  overflow="visible"/>
			</clipPath>
			
				<ellipse clip-path="url(#SVGID_8_)" fill="#F8EE5B" stroke="#F2CD1B" stroke-miterlimit="10" cx="154.706" cy="73.004" rx="7.292" ry="8.083"/>
		</g>
		<g>
			
				<path id="SVGID_1_" fill="none" stroke="#000000" stroke-width="3" stroke-linecap="round" stroke-linejoin="round" stroke-miterlimit="10" d="
				M129.642,84.171c0,0-6.977,6,1.773,6s22-4.125,30.125-7.5s21.375-16.5,22.5-19.875S150.869,63.296,129.642,84.171z"/>
		</g>
	</g>
	
		<path fill="#7F7F7F" stroke="#000000" stroke-width="3" stroke-linecap="round" stroke-linejoin="round" stroke-miterlimit="10" d="
		M132.458,52.75c-0.68,0.551-6.25-20.375,8-20.5s11.75,10.25,11.75,10.25S144.958,42.625,132.458,52.75z"/>
	<path fill="#E3A451" d="M341.833,237c-4.5,0.5-296.5,0-296.5,0l-25,51v16h344v-16C364.333,288,346.333,236.5,341.833,237z"/>
	<g display="none">
		
			<radialGradient id="SVGID_9_" cx="-27.123" cy="467.4746" r="17.3152" gradientTransform="matrix(1 0 0 -1 126 485.7422)" gradientUnits="userSpaceOnUse">
			<stop  offset="0.1" style="stop-color:#000000"/>
			<stop  offset="0.1108" style="stop-color:#000000"/>
			<stop  offset="0.1525" style="stop-color:#050000"/>
			<stop  offset="0.1996" style="stop-color:#211800"/>
			<stop  offset="0.2529" style="stop-color:#34290B"/>
			<stop  offset="0.3152" style="stop-color:#423512"/>
			<stop  offset="0.3922" style="stop-color:#4C3E16"/>
			<stop  offset="0.5002" style="stop-color:#524318"/>
			<stop  offset="0.8" style="stop-color:#544418"/>
			<stop  offset="1" style="stop-color:#000000"/>
		</radialGradient>
		<circle display="inline" opacity="0.25" fill="url(#SVGID_9_)" enable-background="new    " cx="98.877" cy="18.267" r="17.315"/>
		
			<radialGradient id="SVGID_10_" cx="21.083" cy="412.5625" r="0.5767" gradientTransform="matrix(1 0 0 -1 126 485.7422)" gradientUnits="userSpaceOnUse">
			<stop  offset="0" style="stop-color:#CAE095"/>
			<stop  offset="0.0239" style="stop-color:#AFC082"/>
			<stop  offset="0.0943" style="stop-color:#79815A"/>
			<stop  offset="0.1703" style="stop-color:#50543B"/>
			<stop  offset="0.2502" style="stop-color:#333524"/>
			<stop  offset="0.3348" style="stop-color:#1C1D0F"/>
			<stop  offset="0.4256" style="stop-color:#030300"/>
			<stop  offset="0.525" style="stop-color:#000000"/>
			<stop  offset="0.6374" style="stop-color:#000000"/>
			<stop  offset="0.7736" style="stop-color:#000000"/>
			<stop  offset="1" style="stop-color:#000000"/>
		</radialGradient>
		<circle display="inline" fill="url(#SVGID_10_)" cx="147.083" cy="73.18" r="0.577"/>
		
			<radialGradient id="SVGID_11_" cx="72.6597" cy="353.8096" r="0.5771" gradientTransform="matrix(1 0 0 -1 126 485.7422)" gradientUnits="userSpaceOnUse">
			<stop  offset="0" style="stop-color:#CAE095"/>
			<stop  offset="0.0239" style="stop-color:#AFC082"/>
			<stop  offset="0.0943" style="stop-color:#79815A"/>
			<stop  offset="0.1703" style="stop-color:#50543B"/>
			<stop  offset="0.2502" style="stop-color:#333524"/>
			<stop  offset="0.3348" style="stop-color:#1C1D0F"/>
			<stop  offset="0.4256" style="stop-color:#030300"/>
			<stop  offset="0.525" style="stop-color:#000000"/>
			<stop  offset="0.6374" style="stop-color:#000000"/>
			<stop  offset="0.7736" style="stop-color:#000000"/>
			<stop  offset="1" style="stop-color:#000000"/>
		</radialGradient>
		<circle display="inline" fill="url(#SVGID_11_)" cx="198.661" cy="131.933" r="0.577"/>
		
			<radialGradient id="SVGID_12_" cx="68.6694" cy="358.3564" r="4.3291" gradientTransform="matrix(1 0 0 -1 126 485.7422)" gradientUnits="userSpaceOnUse">
			<stop  offset="0.05" style="stop-color:#000000"/>
			<stop  offset="0.1912" style="stop-color:#000800"/>
			<stop  offset="0.3325" style="stop-color:#072D0F"/>
			<stop  offset="0.4638" style="stop-color:#17461D"/>
			<stop  offset="0.5812" style="stop-color:#205A26"/>
			<stop  offset="0.6806" style="stop-color:#26672B"/>
			<stop  offset="0.75" style="stop-color:#286C2C"/>
			<stop  offset="0.7553" style="stop-color:#336C2A"/>
			<stop  offset="0.7931" style="stop-color:#5B6C1A"/>
			<stop  offset="0.8244" style="stop-color:#6E6B07"/>
			<stop  offset="0.8475" style="stop-color:#776B00"/>
			<stop  offset="0.86" style="stop-color:#7B6B00"/>
			<stop  offset="0.8801" style="stop-color:#786800"/>
			<stop  offset="0.898" style="stop-color:#6F6100"/>
			<stop  offset="0.9151" style="stop-color:#635500"/>
			<stop  offset="0.9317" style="stop-color:#524500"/>
			<stop  offset="0.9479" style="stop-color:#3E3300"/>
			<stop  offset="0.9639" style="stop-color:#271E00"/>
			<stop  offset="0.9796" style="stop-color:#090000"/>
			<stop  offset="0.9948" style="stop-color:#000000"/>
			<stop  offset="1" style="stop-color:#000000"/>
		</radialGradient>
		
			<circle display="inline" opacity="0.2" fill="url(#SVGID_12_)" enable-background="new    " cx="194.668" cy="127.386" r="4.329"/>
		<line display="inline" fill="none" x1="118.833" y1="41" x2="198.661" y2="131.933"/>
		
			<radialGradient id="SVGID_13_" cx="-7.167" cy="444.7422" r="11.543" gradientTransform="matrix(1 0 0 -1 126 485.7422)" gradientUnits="userSpaceOnUse">
			<stop  offset="0" style="stop-color:#000000"/>
			<stop  offset="0.73" style="stop-color:#93432A"/>
			<stop  offset="1" style="stop-color:#000000"/>
		</radialGradient>
		<circle display="inline" opacity="0.15" fill="url(#SVGID_13_)" enable-background="new    " cx="118.833" cy="41" r="11.543"/>
		
			<radialGradient id="SVGID_14_" cx="-7.167" cy="444.7422" r="5.7712" gradientTransform="matrix(1 0 0 -1 126 485.7422)" gradientUnits="userSpaceOnUse">
			<stop  offset="0.15" style="stop-color:#FFFFFF"/>
			<stop  offset="0.2134" style="stop-color:#D7C0BE"/>
			<stop  offset="0.2931" style="stop-color:#B68A8A"/>
			<stop  offset="0.362" style="stop-color:#A16A6B"/>
			<stop  offset="0.4166" style="stop-color:#95585B"/>
			<stop  offset="0.45" style="stop-color:#915155"/>
			<stop  offset="0.5442" style="stop-color:#78312F"/>
			<stop  offset="0.6472" style="stop-color:#5C0E05"/>
			<stop  offset="0.7362" style="stop-color:#410000"/>
			<stop  offset="0.8068" style="stop-color:#200000"/>
			<stop  offset="0.85" style="stop-color:#000000"/>
			<stop  offset="0.856" style="stop-color:#120000"/>
			<stop  offset="0.8623" style="stop-color:#300000"/>
			<stop  offset="0.8686" style="stop-color:#470000"/>
			<stop  offset="0.875" style="stop-color:#5C0000"/>
			<stop  offset="0.8815" style="stop-color:#751400"/>
			<stop  offset="0.888" style="stop-color:#912A15"/>
			<stop  offset="0.8945" style="stop-color:#B44126"/>
			<stop  offset="0.9" style="stop-color:#D65836"/>
			<stop  offset="0.9063" style="stop-color:#BD472B"/>
			<stop  offset="0.916" style="stop-color:#9D311B"/>
			<stop  offset="0.9262" style="stop-color:#801D09"/>
			<stop  offset="0.9367" style="stop-color:#690900"/>
			<stop  offset="0.9475" style="stop-color:#530000"/>
			<stop  offset="0.9588" style="stop-color:#410000"/>
			<stop  offset="0.9707" style="stop-color:#290000"/>
			<stop  offset="0.9838" style="stop-color:#0F0000"/>
			<stop  offset="1" style="stop-color:#000000"/>
		</radialGradient>
		<circle display="inline" opacity="0.5" fill="url(#SVGID_14_)" enable-background="new    " cx="118.833" cy="41" r="5.771"/>
		
			<radialGradient id="SVGID_15_" cx="-7.167" cy="444.7422" r="4.8103" gradientTransform="matrix(1 0 0 -1 126 485.7422)" gradientUnits="userSpaceOnUse">
			<stop  offset="0.15" style="stop-color:#FFFFFF"/>
			<stop  offset="0.2824" style="stop-color:#9C9593"/>
			<stop  offset="0.4253" style="stop-color:#5A5250"/>
			<stop  offset="0.5636" style="stop-color:#302A28"/>
			<stop  offset="0.6936" style="stop-color:#0F0704"/>
			<stop  offset="0.8134" style="stop-color:#000000"/>
			<stop  offset="0.9192" style="stop-color:#000000"/>
			<stop  offset="1" style="stop-color:#000000"/>
		</radialGradient>
		<circle display="inline" fill="url(#SVGID_15_)" cx="118.833" cy="41" r="4.81"/>
		
			<polyline display="inline" opacity="0.03" fill="none" stroke="#FFFFFF" stroke-width="2" stroke-miterlimit="10" enable-background="new    " points="
			118.833,41 120.673,41.332 118.833,41 116.994,40.668 118.833,41 118.501,42.84 118.833,41 119.166,39.16 118.833,41 
			124.447,42.979 118.833,41 113.22,39.021 118.833,41 116.855,46.613 118.833,41 120.812,35.387 118.833,41 140.797,42.037 
			118.833,41 96.87,39.963 118.833,41 117.797,62.963 118.833,41 119.87,19.037 118.833,41 142.682,46.291 118.833,41 
			94.985,35.709 118.833,41 113.543,64.849 118.833,41 124.124,17.151 118.833,41 130.643,62.388 118.833,41 107.024,19.612 
			118.833,41 97.445,52.81 118.833,41 140.222,29.19 118.833,41 126.731,55.981 118.833,41 110.936,26.019 118.833,41 
			103.853,48.897 118.833,41 133.814,33.103 118.833,41 136.188,56.246 118.833,41 101.479,25.754 118.833,41 103.587,58.355 
			118.833,41 134.08,23.645 118.833,41 119.968,53.471 118.833,41 117.699,28.529 118.833,41 106.363,42.134 118.833,41 
			131.304,39.866 118.833,41 131.747,42.736 118.833,41 105.92,39.264 118.833,41 117.097,53.913 118.833,41 120.57,28.087 
			118.833,41 126.009,55.859 118.833,41 111.658,26.141 118.833,41 103.975,48.176 118.833,41 133.692,33.824 118.833,41 
			134.112,48.453 118.833,41 103.555,33.547 118.833,41 111.381,56.279 118.833,41 126.286,25.721 118.833,41 121.396,49.57 
			118.833,41 116.271,32.43 118.833,41 110.263,43.563 118.833,41 127.404,38.438 118.833,41 126.12,64.833 118.833,41 
			111.547,17.167 118.833,41 95,48.286 118.833,41 142.667,33.714 118.833,41 122.599,43.842 118.833,41 115.068,38.158 118.833,41 
			115.992,44.765 118.833,41 121.675,37.235 118.833,41 120.205,41.047 118.833,41 117.462,40.953 118.833,41 118.786,42.371 
			118.833,41 118.881,39.629 		"/>
		
			<radialGradient id="SVGID_16_" cx="72.6602" cy="353.8086" r="8.658" gradientTransform="matrix(1 0 0 -1 126 485.7422)" gradientUnits="userSpaceOnUse">
			<stop  offset="0.64" style="stop-color:#000000"/>
			<stop  offset="0.7002" style="stop-color:#000000"/>
			<stop  offset="0.7219" style="stop-color:#000000"/>
			<stop  offset="0.7374" style="stop-color:#000000"/>
			<stop  offset="0.7499" style="stop-color:#000000"/>
			<stop  offset="0.7606" style="stop-color:#000000"/>
			<stop  offset="0.7701" style="stop-color:#000100"/>
			<stop  offset="0.7787" style="stop-color:#001200"/>
			<stop  offset="0.7866" style="stop-color:#002300"/>
			<stop  offset="0.7936" style="stop-color:#003306"/>
			<stop  offset="0.8" style="stop-color:#004510"/>
			<stop  offset="0.8034" style="stop-color:#0F3E0A"/>
			<stop  offset="0.812" style="stop-color:#272F00"/>
			<stop  offset="0.8207" style="stop-color:#302000"/>
			<stop  offset="0.8292" style="stop-color:#351000"/>
			<stop  offset="0.8375" style="stop-color:#380000"/>
			<stop  offset="0.8455" style="stop-color:#390000"/>
			<stop  offset="0.8531" style="stop-color:#3A0000"/>
			<stop  offset="0.86" style="stop-color:#3A0000"/>
			<stop  offset="0.8632" style="stop-color:#310000"/>
			<stop  offset="0.8694" style="stop-color:#220000"/>
			<stop  offset="0.8765" style="stop-color:#150000"/>
			<stop  offset="0.8841" style="stop-color:#090000"/>
			<stop  offset="0.8926" style="stop-color:#010000"/>
			<stop  offset="0.9021" style="stop-color:#000000"/>
			<stop  offset="0.9132" style="stop-color:#000000"/>
			<stop  offset="0.927" style="stop-color:#000000"/>
			<stop  offset="0.9464" style="stop-color:#000000"/>
			<stop  offset="1" style="stop-color:#000000"/>
		</radialGradient>
		
			<circle display="inline" opacity="0.5" fill="url(#SVGID_16_)" enable-background="new    " cx="198.661" cy="131.933" r="8.658"/>
		
			<radialGradient id="SVGID_17_" cx="-1.9634" cy="438.8154" r="0.0806" gradientTransform="matrix(1 0 0 -1 126 485.7422)" gradientUnits="userSpaceOnUse">
			<stop  offset="0.1" style="stop-color:#69634B"/>
			<stop  offset="0.1744" style="stop-color:#504936"/>
			<stop  offset="0.2854" style="stop-color:#322C1D"/>
			<stop  offset="0.3995" style="stop-color:#1A1305"/>
			<stop  offset="0.5146" style="stop-color:#000000"/>
			<stop  offset="0.631" style="stop-color:#000000"/>
			<stop  offset="0.7493" style="stop-color:#000000"/>
			<stop  offset="0.8707" style="stop-color:#000000"/>
			<stop  offset="1" style="stop-color:#000000"/>
		</radialGradient>
		<circle display="inline" fill="url(#SVGID_17_)" cx="124.037" cy="46.927" r="0.081"/>
		
			<radialGradient id="SVGID_18_" cx="43.6211" cy="386.8887" r="1.9609" gradientTransform="matrix(1 0 0 -1 126 485.7422)" gradientUnits="userSpaceOnUse">
			<stop  offset="0.1" style="stop-color:#000000"/>
			<stop  offset="0.1742" style="stop-color:#000000"/>
			<stop  offset="0.2853" style="stop-color:#240000"/>
			<stop  offset="0.3994" style="stop-color:#411313"/>
			<stop  offset="0.5145" style="stop-color:#592120"/>
			<stop  offset="0.6309" style="stop-color:#6E2B29"/>
			<stop  offset="0.7493" style="stop-color:#7E3330"/>
			<stop  offset="0.8707" style="stop-color:#883734"/>
			<stop  offset="1" style="stop-color:#8B3935"/>
		</radialGradient>
		<circle display="inline" fill="url(#SVGID_18_)" cx="169.621" cy="98.853" r="1.961"/>
		
			<radialGradient id="SVGID_19_" cx="5.0073" cy="430.875" r="0.821" gradientTransform="matrix(1 0 0 -1 126 485.7422)" gradientUnits="userSpaceOnUse">
			<stop  offset="0.1" style="stop-color:#947595"/>
			<stop  offset="0.191" style="stop-color:#6A5267"/>
			<stop  offset="0.2998" style="stop-color:#463340"/>
			<stop  offset="0.4116" style="stop-color:#291B24"/>
			<stop  offset="0.5243" style="stop-color:#100208"/>
			<stop  offset="0.6384" style="stop-color:#000000"/>
			<stop  offset="0.7544" style="stop-color:#000000"/>
			<stop  offset="0.8734" style="stop-color:#000000"/>
			<stop  offset="1" style="stop-color:#000000"/>
		</radialGradient>
		<circle display="inline" fill="url(#SVGID_19_)" cx="131.007" cy="54.867" r="0.821"/>
		
			<radialGradient id="SVGID_20_" cx="-8.4131" cy="446.1621" r="2.3721" gradientTransform="matrix(1 0 0 -1 126 485.7422)" gradientUnits="userSpaceOnUse">
			<stop  offset="0.1" style="stop-color:#020002"/>
			<stop  offset="0.1172" style="stop-color:#020002"/>
			<stop  offset="0.2207" style="stop-color:#010000"/>
			<stop  offset="0.3273" style="stop-color:#000000"/>
			<stop  offset="0.4347" style="stop-color:#000000"/>
			<stop  offset="0.5431" style="stop-color:#000000"/>
			<stop  offset="0.6527" style="stop-color:#000000"/>
			<stop  offset="0.7641" style="stop-color:#000000"/>
			<stop  offset="0.8783" style="stop-color:#000000"/>
			<stop  offset="1" style="stop-color:#000000"/>
		</radialGradient>
		<circle display="inline" fill="url(#SVGID_20_)" cx="117.587" cy="39.58" r="2.372"/>
		
			<radialGradient id="SVGID_21_" cx="-7.1738" cy="444.75" r="2.501" gradientTransform="matrix(1 0 0 -1 126 485.7422)" gradientUnits="userSpaceOnUse">
			<stop  offset="0.1" style="stop-color:#000000"/>
			<stop  offset="0.191" style="stop-color:#030000"/>
			<stop  offset="0.2998" style="stop-color:#2A1B25"/>
			<stop  offset="0.4116" style="stop-color:#463441"/>
			<stop  offset="0.5243" style="stop-color:#5F495B"/>
			<stop  offset="0.6384" style="stop-color:#755B73"/>
			<stop  offset="0.7544" style="stop-color:#866985"/>
			<stop  offset="0.8734" style="stop-color:#907291"/>
			<stop  offset="1" style="stop-color:#947595"/>
		</radialGradient>
		<circle display="inline" fill="url(#SVGID_21_)" cx="118.826" cy="40.992" r="2.501"/>
	</g>
</g>
<g id="Layer_3">
	<g>
		<path fill="#FFFFFF" stroke="#000000" stroke-miterlimit="10" d="M342.333,170.915h-58.623V158h58.623
			c0,0-1.623,2.789-1.623,6.457S342.333,170.915,342.333,170.915z"/>
		<g>
			<path fill="#ED1C24" d="M286.958,175.375c-1.842,0-6.125-1.011-6.125-10.375c0-9.425,4.183-10.389,5.021-10.487l0.174-0.012
				l59.432-0.001c1.104,0,2,0.897,2,2s-0.896,2-2,2h-59.031c-0.35,0.264-1.594,1.551-1.594,6.5c0,4.404,1.066,6.375,2.125,6.375
				c0.291-0.001,7.873-0.191,55.34-1.447l1.984-0.052c1.143,0,2.02,0.854,2.051,1.946c0.014,0.534-0.182,1.042-0.549,1.43
				c-0.369,0.387-0.865,0.608-1.398,0.623C343.823,173.889,287.752,175.375,286.958,175.375z"/>
			<path d="M345.458,155.5c0.553,0,1,0.448,1,1s-0.447,1-1,1h-59.278c-0.224,0.08-2.347,0.983-2.347,7.5
				c0,4.618,1.168,7.375,3.125,7.375c0.885-0.004,56.785-1.485,57.35-1.5c0.01,0,0.018,0,0.027,0c0.539,0,0.984,0.431,0.998,0.974
				c0.016,0.552-0.422,1.011-0.973,1.026c-2.314,0.062-56.646,1.5-57.402,1.5c-1.541,0-5.125-0.914-5.125-9.375
				c0-8.763,3.713-9.444,4.137-9.494l0.113-0.006H345.458 M345.458,153.5h-59.375h-0.056l-0.056,0.003l-0.114,0.006l-0.06,0.003
				l-0.062,0.007c-0.985,0.115-5.903,1.208-5.903,11.48c0,10.555,5.453,11.375,7.125,11.375c0.819,0,56.891-1.486,57.453-1.501
				c1.654-0.044,2.965-1.425,2.92-3.079c-0.043-1.638-1.361-2.92-2.998-2.92h-0.055l-0.033,0.001l-1.924,0.051
				c-47.318,1.251-55.006,1.444-55.376,1.448c-0.204-0.117-1.112-1.396-1.112-5.375c0-3.354,0.623-4.946,1.016-5.5h58.609
				c1.654,0,3-1.346,3-3C348.458,154.845,347.114,153.5,345.458,153.5L345.458,153.5z"/>
		</g>
	</g>
	<g>
		<path fill="#FFFFFF" stroke="#000000" stroke-miterlimit="10" d="M344.208,189.79h-58.623v-12.915h58.623
			c0,0-1.623,2.789-1.623,6.457S344.208,189.79,344.208,189.79z"/>
		<g>
			<path fill="#F7941E" d="M288.833,194.25c-1.842,0-6.125-1.011-6.125-10.375c0-9.425,4.183-10.389,5.021-10.487l0.174-0.012
				l59.432-0.001c1.104,0,2,0.897,2,2s-0.896,2-2,2h-59.031c-0.35,0.264-1.594,1.551-1.594,6.5c0,4.404,1.066,6.375,2.125,6.375
				c0.291-0.001,7.873-0.191,55.34-1.447l1.984-0.052c1.143,0,2.02,0.854,2.051,1.946c0.014,0.534-0.182,1.042-0.549,1.43
				c-0.369,0.387-0.865,0.608-1.398,0.623C345.698,192.764,289.627,194.25,288.833,194.25z"/>
			<path d="M347.333,174.375c0.553,0,1,0.448,1,1s-0.447,1-1,1h-59.278c-0.224,0.08-2.347,0.983-2.347,7.5
				c0,4.618,1.168,7.375,3.125,7.375c0.885-0.004,56.785-1.485,57.35-1.5c0.01,0,0.018,0,0.027,0c0.539,0,0.984,0.431,0.998,0.974
				c0.016,0.552-0.422,1.011-0.973,1.026c-2.314,0.062-56.646,1.5-57.402,1.5c-1.541,0-5.125-0.914-5.125-9.375
				c0-8.763,3.713-9.444,4.137-9.494l0.113-0.006H347.333 M347.333,172.375h-59.375h-0.056l-0.056,0.003l-0.114,0.006l-0.06,0.003
				l-0.062,0.007c-0.985,0.115-5.903,1.208-5.903,11.48c0,10.555,5.453,11.375,7.125,11.375c0.819,0,56.891-1.486,57.453-1.501
				c1.654-0.044,2.965-1.425,2.92-3.079c-0.043-1.638-1.361-2.92-2.998-2.92h-0.055l-0.033,0.001l-1.924,0.051
				c-47.318,1.251-55.006,1.444-55.376,1.448c-0.204-0.117-1.112-1.396-1.112-5.375c0-3.354,0.623-4.946,1.016-5.5h58.609
				c1.654,0,3-1.346,3-3C350.333,173.72,348.989,172.375,347.333,172.375L347.333,172.375z"/>
		</g>
	</g>
	<g>
		<path fill="#FFFFFF" stroke="#000000" stroke-miterlimit="10" d="M204.79,182.581h-58.623v-12.915h58.623
			c0,0-1.623,2.789-1.623,6.457S204.79,182.581,204.79,182.581z"/>
		<g>
			<path fill="#ED1C24" d="M149.417,187.041c-1.842,0-6.125-1.011-6.125-10.375c0-9.425,4.182-10.389,5.021-10.487l0.174-0.012
				l59.432-0.001c1.103,0,2,0.897,2,2s-0.897,2-2,2h-59.031c-0.35,0.264-1.594,1.551-1.594,6.5c0,4.404,1.067,6.375,2.125,6.375
				c0.291-0.001,7.874-0.191,55.34-1.447l1.984-0.052c1.143,0,2.021,0.854,2.051,1.946c0.014,0.534-0.182,1.042-0.549,1.43
				c-0.369,0.387-0.865,0.608-1.398,0.623C206.282,185.555,150.211,187.041,149.417,187.041z"/>
			<path d="M207.917,167.166c0.554,0,1,0.448,1,1s-0.446,1-1,1h-59.278c-0.223,0.08-2.346,0.983-2.346,7.5
				c0,4.618,1.168,7.375,3.125,7.375c0.884-0.004,56.785-1.485,57.349-1.5c0.009,0,0.018,0,0.027,0c0.539,0,0.983,0.431,0.998,0.974
				c0.016,0.552-0.422,1.011-0.974,1.026c-2.313,0.062-56.646,1.5-57.401,1.5c-1.541,0-5.125-0.914-5.125-9.375
				c0-8.763,3.712-9.444,4.136-9.494l0.114-0.006H207.917 M207.917,165.166h-59.375h-0.056l-0.056,0.003l-0.114,0.006l-0.06,0.003
				l-0.061,0.007c-0.985,0.115-5.904,1.208-5.904,11.48c0,10.555,5.453,11.375,7.125,11.375c0.82,0,56.891-1.486,57.454-1.501
				c1.654-0.044,2.965-1.425,2.92-3.079c-0.043-1.638-1.36-2.92-2.998-2.92h-0.056l-0.032,0.001l-1.925,0.051
				c-47.318,1.251-55.005,1.444-55.375,1.448c-0.204-0.117-1.113-1.396-1.113-5.375c0-3.354,0.624-4.946,1.016-5.5h58.609
				c1.653,0,3-1.346,3-3C210.917,166.511,209.571,165.166,207.917,165.166L207.917,165.166z"/>
		</g>
	</g>
	<g>
		<path fill="#FFFFFF" stroke="#000000" stroke-miterlimit="10" d="M206.665,201.456h-58.623v-12.915h58.623
			c0,0-1.623,2.789-1.623,6.457S206.665,201.456,206.665,201.456z"/>
		<g>
			<path fill="#F7941E" d="M151.292,205.916c-1.842,0-6.125-1.011-6.125-10.375c0-9.425,4.182-10.389,5.021-10.487l0.174-0.012
				l59.432-0.001c1.103,0,2,0.897,2,2s-0.897,2-2,2H150.76c-0.35,0.264-1.594,1.551-1.594,6.5c0,4.404,1.067,6.375,2.125,6.375
				c0.291-0.001,7.874-0.191,55.34-1.447l1.984-0.052c1.143,0,2.02,0.854,2.051,1.946c0.014,0.534-0.182,1.042-0.549,1.43
				c-0.369,0.387-0.865,0.608-1.398,0.623C208.157,204.43,152.086,205.916,151.292,205.916z"/>
			<path d="M209.792,186.041c0.554,0,1,0.448,1,1s-0.446,1-1,1h-59.278c-0.223,0.08-2.346,0.983-2.346,7.5
				c0,4.618,1.168,7.375,3.125,7.375c0.884-0.004,56.785-1.485,57.349-1.5c0.009,0,0.018,0,0.027,0c0.539,0,0.983,0.431,0.998,0.974
				c0.016,0.552-0.422,1.011-0.974,1.026c-2.313,0.062-56.646,1.5-57.401,1.5c-1.541,0-5.125-0.914-5.125-9.375
				c0-8.763,3.712-9.444,4.136-9.494l0.114-0.006H209.792 M209.792,184.041h-59.375h-0.056l-0.056,0.003l-0.114,0.006l-0.06,0.003
				l-0.061,0.007c-0.985,0.115-5.904,1.208-5.904,11.48c0,10.555,5.453,11.375,7.125,11.375c0.82,0,56.891-1.486,57.454-1.501
				c1.654-0.044,2.965-1.425,2.92-3.079c-0.043-1.638-1.36-2.92-2.998-2.92h-0.056l-0.032,0.001l-1.925,0.051
				c-47.318,1.251-55.005,1.444-55.375,1.448c-0.204-0.117-1.113-1.396-1.113-5.375c0-3.354,0.624-4.946,1.016-5.5h58.609
				c1.653,0,3-1.346,3-3C212.792,185.386,211.446,184.041,209.792,184.041L209.792,184.041z"/>
		</g>
	</g>
	<g>
		<path fill="#FFFFFF" stroke="#000000" stroke-miterlimit="10" d="M203.665,220.33h-58.624v-12.914h58.624
			c0,0-1.623,2.789-1.623,6.457S203.665,220.33,203.665,220.33z"/>
		<g>
			<path fill="#262262" d="M148.291,224.791c-1.842,0-6.125-1.011-6.125-10.375c0-9.425,4.182-10.389,5.021-10.487l0.174-0.012
				l59.431-0.001c1.104,0,2,0.897,2,2s-0.896,2-2,2h-59.031c-0.35,0.264-1.594,1.551-1.594,6.5c0,4.404,1.067,6.375,2.125,6.375
				c0.291-0.002,7.874-0.191,55.339-1.447l1.984-0.052c1.145,0,2.021,0.854,2.051,1.946c0.015,0.533-0.181,1.041-0.549,1.43
				c-0.367,0.387-0.863,0.607-1.398,0.622C205.155,223.305,149.085,224.791,148.291,224.791z"/>
			<path d="M206.792,204.916c0.553,0,1,0.448,1,1s-0.447,1-1,1h-59.279c-0.223,0.08-2.346,0.983-2.346,7.5
				c0,4.618,1.168,7.375,3.125,7.375c0.884-0.004,56.784-1.484,57.349-1.5c0.009,0,0.019,0,0.026,0c0.539,0,0.984,0.431,1,0.974
				c0.015,0.552-0.422,1.011-0.975,1.026c-2.313,0.061-56.646,1.5-57.401,1.5c-1.541,0-5.125-0.914-5.125-9.375
				c0-8.763,3.712-9.444,4.136-9.494l0.114-0.006H206.792 M206.792,202.916h-59.375h-0.056l-0.056,0.003l-0.114,0.006l-0.06,0.003
				l-0.061,0.007c-0.985,0.115-5.904,1.208-5.904,11.48c0,10.555,5.453,11.375,7.125,11.375c0.82,0,56.891-1.486,57.455-1.501
				c1.653-0.044,2.963-1.425,2.92-3.079c-0.045-1.638-1.361-2.92-2.998-2.92h-0.057l-0.033,0.002l-1.923,0.051
				c-47.319,1.251-55.006,1.443-55.376,1.447c-0.204-0.117-1.113-1.396-1.113-5.375c0-3.354,0.624-4.946,1.016-5.5h58.608
				c1.654,0,3-1.346,3-3C209.79,204.261,208.445,202.916,206.792,202.916L206.792,202.916z"/>
		</g>
	</g>
	<g>
		<path fill="#FFFFFF" stroke="#000000" stroke-miterlimit="10" d="M212.095,243.816h-76.16v-16.777h76.16
			c0,0-2.108,3.623-2.108,8.387C209.987,240.191,212.095,243.816,212.095,243.816z"/>
		<g>
			<path fill="#2E3192" d="M140.158,249.313c-2.303,0-7.658-1.285-7.658-13.181c0-11.992,5.213-13.205,6.258-13.326l0.208-0.014
				l77.193-0.001c1.268,0,2.299,1.031,2.299,2.299c0,1.268-1.031,2.299-2.299,2.299h-76.78c-0.463,0.301-2.28,1.916-2.28,8.743
				c0,5.213,1.201,8.581,3.06,8.581c0.635-0.003,24.068-0.615,69.646-1.818c0,0,4.834-0.129,4.835-0.129
				c1.293,0,2.321,1.004,2.354,2.238c0.018,0.612-0.207,1.195-0.629,1.643c-0.424,0.446-0.996,0.699-1.609,0.717
				C214.025,247.382,141.192,249.313,140.158,249.313z"/>
			<path d="M216.159,223.791c0.717,0,1.299,0.582,1.299,1.299s-0.582,1.299-1.299,1.299h-77.014
				c-0.289,0.104-3.047,1.277-3.047,9.743c0,6.001,1.517,9.581,4.06,9.581c1.148-0.005,73.771-1.929,74.504-1.947
				c0.012,0,0.021,0,0.035,0c0.699,0,1.278,0.561,1.297,1.266c0.021,0.716-0.547,1.313-1.265,1.332
				c-3.004,0.08-73.592,1.949-74.572,1.949c-2.002,0-6.658-1.188-6.658-12.181c0-11.384,4.822-12.269,5.373-12.333l0.148-0.008
				H216.159 M216.159,221.791h-77.138h-0.056l-0.056,0.002l-0.148,0.009l-0.06,0.003l-0.06,0.008
				c-1.193,0.139-7.143,1.479-7.143,14.319c0,12.798,6.055,14.181,8.658,14.181c1.042,0,73.895-1.932,74.625-1.951
				c0.881-0.021,1.699-0.387,2.307-1.027c0.606-0.641,0.929-1.477,0.904-2.357c-0.047-1.77-1.525-3.211-3.298-3.211h-0.084
				l-0.038,0.004c-0.287,0.006-2.037,0.054-4.824,0.127c-45.438,1.201-68.855,1.813-69.603,1.817c-0.636,0-2.05-1.909-2.05-7.581
				c0-4.992,1.045-7.126,1.631-7.742h76.43c1.818,0,3.299-1.48,3.299-3.3C219.458,223.271,217.977,221.791,216.159,221.791
				L216.159,221.791z"/>
		</g>
	</g>
	<g>
		<path fill="#FFFFFF" stroke="#000000" stroke-miterlimit="10" d="M341.206,208.665h-58.623V195.75h58.623
			c0,0-1.623,2.789-1.623,6.457S341.206,208.665,341.206,208.665z"/>
		<g>
			<path fill="#262262" d="M285.833,213.125c-1.842,0-6.125-1.011-6.125-10.375c0-9.425,4.183-10.389,5.021-10.487l0.174-0.012
				l59.432-0.001c1.104,0,2,0.897,2,2s-0.896,2-2,2h-59.031c-0.35,0.264-1.594,1.551-1.594,6.5c0,4.404,1.066,6.375,2.125,6.375
				c0.291-0.001,7.873-0.191,55.34-1.447l1.984-0.052c1.143,0,2.02,0.854,2.051,1.946c0.014,0.534-0.182,1.042-0.549,1.43
				c-0.369,0.387-0.865,0.608-1.398,0.623C342.698,211.639,286.627,213.125,285.833,213.125z"/>
			<path d="M344.333,193.25c0.553,0,1,0.448,1,1s-0.447,1-1,1h-59.278c-0.224,0.08-2.347,0.983-2.347,7.5
				c0,4.618,1.168,7.375,3.125,7.375c0.885-0.004,56.785-1.485,57.35-1.5c0.01,0,0.018,0,0.027,0c0.539,0,0.984,0.431,0.998,0.974
				c0.016,0.552-0.422,1.011-0.973,1.026c-2.314,0.062-56.646,1.5-57.402,1.5c-1.541,0-5.125-0.914-5.125-9.375
				c0-8.763,3.713-9.444,4.137-9.494l0.113-0.006H344.333 M344.333,191.25h-59.375h-0.056l-0.056,0.003l-0.114,0.006l-0.06,0.003
				l-0.062,0.007c-0.985,0.115-5.903,1.208-5.903,11.48c0,10.555,5.453,11.375,7.125,11.375c0.819,0,56.891-1.486,57.453-1.501
				c1.654-0.044,2.965-1.425,2.92-3.079c-0.043-1.638-1.361-2.92-2.998-2.92h-0.055l-0.033,0.001l-1.924,0.051
				c-47.318,1.251-55.006,1.444-55.376,1.448c-0.204-0.117-1.112-1.396-1.112-5.375c0-3.354,0.623-4.946,1.016-5.5h58.609
				c1.654,0,3-1.346,3-3C347.333,192.595,345.987,191.25,344.333,191.25L344.333,191.25z"/>
		</g>
	</g>
	<g>
		<path fill="#FFFFFF" stroke="#000000" stroke-miterlimit="10" d="M349.637,232.15h-76.16v-16.778h76.16
			c0,0-2.107,3.624-2.107,8.387C347.53,228.525,349.637,232.15,349.637,232.15z"/>
		<g>
			<path fill="#2E3192" d="M277.7,237.646c-2.303,0-7.658-1.285-7.658-13.181c0-11.992,5.213-13.205,6.258-13.326l0.209-0.014
				l77.191-0.001c1.268,0,2.299,1.031,2.299,2.299c0,1.268-1.031,2.299-2.299,2.299H276.92c-0.463,0.301-2.28,1.917-2.28,8.743
				c0,5.213,1.2,8.581,3.06,8.581c0.635-0.003,24.068-0.615,69.646-1.818l4.834-0.129c1.293,0,2.322,1.004,2.355,2.238
				c0.018,0.612-0.207,1.195-0.629,1.643c-0.424,0.446-0.996,0.699-1.609,0.717C351.567,235.716,278.734,237.646,277.7,237.646z"/>
			<path d="M353.7,212.125c0.719,0,1.299,0.582,1.299,1.299c0,0.717-0.58,1.299-1.299,1.299h-77.013
				c-0.289,0.104-3.047,1.277-3.047,9.743c0,6.001,1.517,9.581,4.06,9.581c1.148-0.005,73.771-1.929,74.504-1.947
				c0.012,0,0.021,0,0.035,0c0.701,0,1.279,0.561,1.299,1.266c0.02,0.716-0.549,1.313-1.266,1.332
				c-3.004,0.08-73.592,1.949-74.572,1.949c-2.002,0-6.658-1.188-6.658-12.181c0-11.384,4.822-12.269,5.373-12.333l0.148-0.008
				H353.7 M353.7,210.125h-77.137h-0.057l-0.055,0.003l-0.148,0.008l-0.061,0.003l-0.06,0.007c-1.192,0.139-7.144,1.48-7.144,14.32
				c0,12.798,6.056,14.181,8.658,14.181c1.043,0,73.895-1.932,74.627-1.951c0.879-0.021,1.699-0.387,2.307-1.027
				c0.605-0.641,0.928-1.477,0.902-2.357c-0.045-1.77-1.525-3.211-3.297-3.211h-0.084l-0.037,0.004
				c-0.287,0.006-2.039,0.054-4.824,0.127c-45.439,1.201-68.856,1.813-69.604,1.817c-0.636,0-2.05-1.909-2.05-7.581
				c0-4.992,1.045-7.126,1.631-7.743H353.7c1.818,0,3.299-1.48,3.299-3.299C356.999,211.604,355.518,210.125,353.7,210.125
				L353.7,210.125z"/>
		</g>
	</g>
	<g>
		<path fill="#FFFFFF" stroke="#000000" stroke-miterlimit="10" d="M278.278,241.141h76.16v16.778l-76.16-0.001
			c0,0,2.108-3.623,2.108-8.387C280.385,244.766,278.278,241.141,278.278,241.141z"/>
		<g>
			<path fill="#00A651" d="M274.215,262.166c-1.269,0-2.299-1.031-2.299-2.299s1.03-2.299,2.299-2.299h76.779
				c0.463-0.301,2.279-1.918,2.279-8.743c0-5.214-1.201-8.581-3.061-8.581c-1.129,0.005-73.748,1.928-74.478,1.947l0,0
				c-1.296,0-2.325-1.006-2.358-2.239c-0.018-0.612,0.207-1.195,0.631-1.642c0.423-0.445,0.992-0.701,1.605-0.718
				c0.73-0.02,73.563-1.948,74.6-1.948c2.303,0,7.658,1.284,7.658,13.181c0,11.997-5.213,13.206-6.258,13.325l-0.234,0.017
				L274.215,262.166z"/>
			<path d="M350.215,236.646c2.002,0,6.658,1.187,6.658,12.18c0,11.384-4.822,12.27-5.373,12.333l-0.148,0.009l-77.137-0.001
				c-0.719,0-1.299-0.582-1.299-1.299c0-0.72,0.58-1.3,1.299-1.3h77.012c0.289-0.104,3.049-1.276,3.049-9.742
				c0-6.001-1.518-9.581-4.061-9.581c-1.148,0.005-73.771,1.928-74.504,1.946c-0.012,0-0.022,0-0.035,0
				c-0.7,0-1.279-0.561-1.299-1.266c-0.02-0.715,0.549-1.313,1.266-1.332C278.647,238.514,349.235,236.646,350.215,236.646
				 M350.215,234.646c-1.045,0-73.896,1.93-74.627,1.948c-0.881,0.023-1.698,0.39-2.305,1.027c-0.607,0.64-0.93,1.478-0.904,2.358
				c0.045,1.77,1.524,3.211,3.297,3.211h0.025l0.063-0.002c0.726-0.019,73.142-1.937,74.46-1.945c0.637,0,2.051,1.908,2.051,7.581
				c0,4.991-1.047,7.126-1.633,7.743h-76.428c-1.819,0-3.299,1.479-3.299,3.299s1.479,3.299,3.299,3.299l77.137,0.001h0.061
				l0.059-0.004l0.148-0.009l0.055-0.004l0.057-0.006c1.191-0.138,7.145-1.475,7.145-14.319
				C358.874,236.027,352.819,234.646,350.215,234.646L350.215,234.646z"/>
		</g>
	</g>
	<g>
		<path fill="#FFFFFF" stroke="#000000" stroke-miterlimit="10" d="M252.894,201.596h-70.683v-15.572h70.683
			c0,0-1.956,3.363-1.956,7.786C250.938,198.232,252.894,201.596,252.894,201.596z"/>
		<g>
			<path fill="#ED1C24" d="M186.129,206.768c-2.159,0-7.179-1.199-7.179-12.304c0-11.194,4.892-12.327,5.872-12.44l0.196-0.013
				l71.646-0.001c1.217,0,2.205,0.989,2.205,2.206c0,1.217-0.988,2.206-2.205,2.206h-71.239c-0.426,0.288-2.065,1.801-2.065,8.043
				c0,4.721,1.112,7.892,2.768,7.892c0.419-0.002,12.272-0.304,66.331-1.734l2.793-0.074c1.262,0,2.229,0.942,2.262,2.146
				c0.031,1.216-0.932,2.231-2.146,2.263C254.687,204.976,187.082,206.768,186.129,206.768z"/>
			<path d="M256.665,183.01c0.668,0,1.207,0.54,1.207,1.206s-0.539,1.206-1.207,1.206H185.19c-0.269,0.096-2.828,1.185-2.828,9.043
				c0,5.568,1.408,8.892,3.768,8.892c1.066-0.005,68.467-1.791,69.147-1.808c0.011,0,0.021,0,0.032,0
				c0.65,0,1.188,0.519,1.205,1.174c0.018,0.666-0.51,1.219-1.174,1.237c-2.789,0.074-68.301,1.81-69.211,1.81
				c-1.858,0-6.179-1.102-6.179-11.304c0-10.566,4.476-11.388,4.987-11.447l0.138-0.008L256.665,183.01 M256.665,181.01h-71.589
				h-0.057l-0.057,0.003l-0.138,0.008l-0.058,0.003l-0.058,0.007c-1.128,0.13-6.757,1.391-6.757,13.434
				c0,12.007,5.72,13.304,8.179,13.304c0.964,0,68.584-1.792,69.265-1.81c1.767-0.047,3.166-1.522,3.119-3.289
				c-0.048-1.75-1.454-3.121-3.204-3.121h-0.047l-0.078,0.002l-2.837,0.075c-53.825,1.423-65.724,1.728-66.229,1.731
				c-0.461,0-1.757-1.633-1.757-6.892c0-4.478,0.91-6.445,1.434-7.043h70.87c1.768,0,3.205-1.438,3.205-3.206
				C259.872,182.448,258.432,181.01,256.665,181.01L256.665,181.01z"/>
		</g>
	</g>
	<g>
		<path fill="#FFFFFF" stroke="#000000" stroke-miterlimit="10" d="M255.155,224.354h-70.683v-15.571h70.683
			c0,0-1.955,3.363-1.955,7.786C253.2,220.99,255.155,224.354,255.155,224.354z"/>
		<g>
			<path fill="#F7941E" d="M188.39,229.525c-2.159,0-7.179-1.198-7.179-12.303c0-11.189,4.891-12.326,5.871-12.44l0.2-0.013
				l71.642-0.001c1.218,0,2.207,0.989,2.207,2.206c0,1.217-0.989,2.206-2.207,2.206h-71.236c-0.428,0.289-2.065,1.803-2.065,8.043
				c0,4.72,1.112,7.892,2.768,7.892c0.42-0.002,12.277-0.305,66.354-1.734c0,0,2.77-0.073,2.771-0.073
				c1.261,0,2.229,0.943,2.261,2.146c0.032,1.216-0.932,2.231-2.146,2.264C256.948,227.734,189.342,229.525,188.39,229.525z"/>
			<path d="M258.924,205.768c0.668,0,1.207,0.54,1.207,1.206s-0.539,1.206-1.207,1.206H187.45c-0.269,0.097-2.828,1.185-2.828,9.043
				c0,5.569,1.408,8.892,3.768,8.892c1.066-0.006,68.467-1.79,69.147-1.808c0.01-0.001,0.021-0.001,0.031-0.001
				c0.65,0,1.188,0.52,1.205,1.174c0.018,0.666-0.509,1.22-1.174,1.236c-2.788,0.074-68.301,1.811-69.211,1.811
				c-1.858,0-6.179-1.103-6.179-11.304c0-10.566,4.476-11.387,4.987-11.447l0.138-0.007L258.924,205.768 M258.924,203.768h-71.589
				h-0.053l-0.053,0.003l-0.138,0.007l-0.063,0.003l-0.063,0.007c-1.128,0.131-6.755,1.396-6.755,13.433
				c0,12.007,5.72,13.304,8.179,13.304c0.964,0,68.584-1.793,69.264-1.812c1.768-0.047,3.167-1.522,3.12-3.289
				c-0.047-1.751-1.454-3.121-3.204-3.121h-0.092l-0.037,0.003l-2.809,0.074c-53.844,1.424-65.75,1.728-66.253,1.731
				c-0.461,0-1.757-1.634-1.757-6.892c0-4.478,0.91-6.445,1.434-7.043h70.869c1.768,0,3.205-1.438,3.205-3.206
				S260.693,203.768,258.924,203.768L258.924,203.768z"/>
		</g>
	</g>
	<g>
		<path fill="#FFFFFF" stroke="#000000" stroke-miterlimit="10" d="M251.538,247.111h-70.684V231.54h70.684
			c0,0-1.957,3.362-1.957,7.786C249.581,243.748,251.538,247.111,251.538,247.111z"/>
		<g>
			<path fill="#262262" d="M184.772,252.284c-2.159,0-7.179-1.199-7.179-12.304c0-11.189,4.89-12.326,5.871-12.44l0.204-0.013
				l71.64-0.002c1.217,0,2.206,0.99,2.206,2.205c0,1.218-0.989,2.207-2.206,2.207H184.07c-0.428,0.289-2.066,1.803-2.066,8.043
				c0,4.721,1.112,7.893,2.768,7.893c1.027-0.005,68.463-1.79,69.119-1.809h0.001c1.265,0,2.231,0.942,2.265,2.146
				c0.032,1.214-0.931,2.229-2.146,2.264l-3.767,0.1C206.733,251.725,185.316,252.284,184.772,252.284z"/>
			<path d="M255.307,228.525c0.666,0,1.206,0.539,1.206,1.205c0,0.668-0.54,1.207-1.206,1.207h-71.475
				c-0.269,0.097-2.829,1.185-2.829,9.043c0,5.567,1.408,8.893,3.768,8.893c1.065-0.005,68.467-1.79,69.146-1.809
				c0.012,0,0.021,0,0.033,0c0.65,0,1.188,0.519,1.205,1.174c0.018,0.664-0.509,1.219-1.174,1.236
				c-2.789,0.073-68.301,1.81-69.211,1.81c-1.858,0-6.179-1.103-6.179-11.304c0-10.566,4.476-11.389,4.986-11.447l0.138-0.008
				H255.307 M255.307,226.525h-71.59h-0.049l-0.05,0.004l-0.138,0.006l-0.066,0.004l-0.066,0.008
				c-1.128,0.131-6.754,1.396-6.754,13.434c0,12.009,5.72,13.305,8.179,13.305c0.554,0,21.989-0.561,65.53-1.711l3.732-0.1
				c1.77-0.049,3.168-1.523,3.121-3.289c-0.048-1.75-1.455-3.121-3.205-3.121h-0.027l-0.061,0.002
				c-0.65,0.018-67.838,1.797-69.103,1.808c-0.461,0-1.757-1.634-1.757-6.894c0-4.479,0.91-6.444,1.435-7.043h70.869
				c1.769,0,3.206-1.438,3.206-3.205C258.514,227.964,257.075,226.525,255.307,226.525L255.307,226.525z"/>
		</g>
	</g>
	<g>
		<path fill="#FFFFFF" stroke="#000000" stroke-miterlimit="10" d="M261.704,275.43h-91.829V255.2h91.829
			c0,0-2.543,4.368-2.543,10.112C259.161,271.059,261.704,275.43,261.704,275.43z"/>
		<g>
			<path fill="#2E3192" d="M174.966,281.85c-2.714,0-9.028-1.527-9.028-15.686c0-14.284,6.134-15.721,7.363-15.863l0.239-0.015
				l93.061-0.002c1.415,0,2.565,1.151,2.565,2.565c0,1.416-1.15,2.565-2.565,2.565H173.97c-0.552,0.328-2.898,2.229-2.898,10.748
				c0,6.41,1.529,10.552,3.895,10.552c0.773-0.003,29.18-0.745,84.427-2.205c0,0,5.381-0.143,5.382-0.143
				c1.444,0,2.594,1.121,2.631,2.498c0.018,0.684-0.232,1.335-0.703,1.833c-0.474,0.497-1.111,0.78-1.795,0.8
				C264.026,279.521,176.189,281.85,174.966,281.85z"/>
			<path d="M266.601,251.284c0.866,0,1.565,0.702,1.565,1.565c0,0.864-0.699,1.565-1.565,1.565h-92.856
				c-0.349,0.126-3.674,1.54-3.674,11.748c0,7.235,1.829,11.552,4.895,11.552c1.385-0.006,88.949-2.324,89.832-2.348
				c0.016-0.001,0.027-0.001,0.043-0.001c0.845,0,1.543,0.676,1.564,1.524c0.023,0.863-0.66,1.584-1.523,1.606
				c-3.623,0.097-88.732,2.351-89.916,2.351c-2.414,0-8.028-1.431-8.028-14.686c0-13.727,5.814-14.793,6.479-14.87l0.179-0.01
				h93.005 M266.601,249.284h-93.006h-0.055l-0.055,0.003l-0.178,0.01l-0.061,0.003l-0.061,0.009
				c-1.377,0.159-8.248,1.725-8.248,16.855c0,15.061,7.013,16.686,10.028,16.686c1.259,0,89.087-2.328,89.968-2.352
				c0.95-0.023,1.837-0.419,2.493-1.111c0.654-0.69,1.003-1.597,0.977-2.549c-0.051-1.913-1.648-3.471-3.563-3.471h-0.067
				l-0.038,0.002c-0.209,0.006-2.177,0.058-5.398,0.143c-55.137,1.457-83.525,2.198-84.379,2.204c-1.429,0-2.885-3.28-2.885-9.552
				c0-7.132,1.658-9.238,2.224-9.748h92.306c1.967,0,3.566-1.6,3.566-3.564C270.167,250.884,268.568,249.284,266.601,249.284
				L266.601,249.284z"/>
		</g>
	</g>
	<path fill="none" d="M130.782,184.649c0,6.069-4.92,10.989-10.989,10.989H59.73c-6.069,0-10.989-4.92-10.989-10.989l0,0
		c0-6.069,4.92-10.99,10.989-10.99h60.063C125.862,173.659,130.782,178.58,130.782,184.649L130.782,184.649z"/>
	<path fill="none" d="M22.982,414.559c0,3.978-3.224,7.2-7.2,7.2h-67.644c-3.977,0-7.2-3.224-7.2-7.2v-7.578
		c0-3.978,3.224-7.2,7.2-7.2h67.644c3.976,0,7.2,3.224,7.2,7.2V414.559z"/>
	<path fill="none" d="M126.188,229.917c0,3.978-3.224,7.2-7.2,7.2H56.034c-3.977,0-7.2-3.225-7.2-7.2v-7.345
		c0-3.976,3.224-7.2,7.2-7.2h62.954c3.977,0,7.2,3.224,7.2,7.2V229.917L126.188,229.917z"/>
	<path fill="#1C75BC" stroke="#032741" stroke-miterlimit="10" d="M138.722,279.003c0,2.312-1.873,4.183-4.184,4.183H53.015
		c-2.31,0-4.183-1.871-4.183-4.183v-16.901c0-2.311,1.873-4.183,4.183-4.183h81.523c2.311,0,4.184,1.872,4.184,4.183V279.003z"/>
	<path fill="#ED1C24" stroke="#032741" stroke-miterlimit="10" d="M129.262,253.771c0,1.988-1.612,3.601-3.6,3.601H55.505
		c-1.988,0-3.6-1.611-3.6-3.601v-14.545c0-1.987,1.612-3.6,3.6-3.6h70.157c1.988,0,3.6,1.611,3.6,3.6V253.771L129.262,253.771z"/>
	<path fill="#27AAE1" stroke="#032741" stroke-miterlimit="10" d="M114.512,231.335c0,1.988-1.612,3.601-3.6,3.601H40.755
		c-1.988,0-3.6-1.611-3.6-3.601V216.79c0-1.988,1.612-3.6,3.6-3.6h70.157c1.988,0,3.6,1.611,3.6,3.6V231.335z"/>
	<path fill="#FFFFFF" stroke="#032741" stroke-miterlimit="10" d="M115.822,210.392c0,1.069-1.396,1.936-3.118,1.936H51.95
		c-1.722,0-3.118-0.867-3.118-1.936v-7.822c0-1.069,1.396-1.936,3.118-1.936h60.755c1.722,0,3.118,0.866,3.118,1.936v7.822H115.822z
		"/>
	<path fill="#9B6627" stroke="#032741" stroke-miterlimit="10" d="M121.596,195.973c0,1.988-1.612,3.6-3.6,3.6H47.839
		c-1.988,0-3.6-1.611-3.6-3.6v-14.545c0-1.988,1.612-3.6,3.6-3.6h70.157c1.988,0,3.6,1.611,3.6,3.6V195.973z"/>
	<path fill="#0A4F34" stroke="#032741" stroke-miterlimit="10" d="M124.669,174.598c0,1.988-1.612,3.6-3.6,3.6H50.913
		c-1.988,0-3.6-1.611-3.6-3.6v-14.545c0-1.988,1.612-3.6,3.6-3.6h70.157c1.988,0,3.6,1.611,3.6,3.6L124.669,174.598L124.669,174.598
		z"/>
	<text transform="matrix(1.2148 0 0 1 72.084 275.4297)" font-family="'MyriadPro-Regular'" font-size="15.2585">Ajax</text>
	<text transform="matrix(1 0 0 1 67.5835 250)" font-family="'MyriadPro-Regular'" font-size="12">Angular</text>
	<text transform="matrix(1 0 0 1 48.7407 228.5264)" font-family="'MyriadPro-Regular'" font-size="12">Backbone</text>
	<text transform="matrix(1 0 0 1 66.917 208.6895)" font-family="'MyriadPro-Regular'" font-size="7.242">PHP/SQL</text>
	<text transform="matrix(1 0 0 1 59.667 193)" font-family="'MyriadPro-Regular'" font-size="12">Javascript</text>
	<text transform="matrix(1 0 0 1 54.5005 171.667)" fill="#FFFFFF" font-family="'MyriadPro-Regular'" font-size="12">Web Design</text>
	<path fill="#EC008C" stroke="#032741" stroke-miterlimit="10" d="M258.493,176.938c0,1.988-1.611,3.6-3.601,3.6h-70.157
		c-1.988,0-3.6-1.611-3.6-3.6v-14.545c0-1.988,1.612-3.6,3.6-3.6h70.157c1.987,0,3.601,1.611,3.601,3.6V176.938z"/>
	<text transform="matrix(1 0 0 1 188.3228 174.0078)" fill="#FFFFFF" font-family="'MyriadPro-Regular'" font-size="12">CSS3/HTML5</text>
</g>
<g id="Layer_6">
	<g opacity="0.05">
		
			<image overflow="visible" enable-background="new    " width="2588" height="2517" xlink:href="144DC711.png"  transform="matrix(0.2394 0 0 0.2396 -35.916 -46.2813)">
		</image>
		<g>
			<path fill="#FFF200" d="M127.006,87.173L72.083,446c0,0,121.251,17.001,235.917-33.666s167.332-164.021,167.332-164.021
				L181.135,61.719C181.135,61.719,150.429,67.097,127.006,87.173z"/>
		</g>
	</g>
	<g display="none">
		
			<radialGradient id="SVGID_22_" cx="-11.042" cy="453.0547" r="17.3147" gradientTransform="matrix(1 0 0 -1 126 485.7422)" gradientUnits="userSpaceOnUse">
			<stop  offset="0.1" style="stop-color:#000000"/>
			<stop  offset="0.1108" style="stop-color:#000000"/>
			<stop  offset="0.1525" style="stop-color:#050000"/>
			<stop  offset="0.1996" style="stop-color:#211800"/>
			<stop  offset="0.2529" style="stop-color:#34290B"/>
			<stop  offset="0.3152" style="stop-color:#423512"/>
			<stop  offset="0.3922" style="stop-color:#4C3E16"/>
			<stop  offset="0.5002" style="stop-color:#524318"/>
			<stop  offset="0.8" style="stop-color:#544418"/>
			<stop  offset="1" style="stop-color:#000000"/>
		</radialGradient>
		
			<circle display="inline" opacity="0.25" fill="url(#SVGID_22_)" enable-background="new    " cx="114.958" cy="32.688" r="17.315"/>
		
			<radialGradient id="SVGID_23_" cx="131.7842" cy="290.3564" r="0.5769" gradientTransform="matrix(1 0 0 -1 126 485.7422)" gradientUnits="userSpaceOnUse">
			<stop  offset="0" style="stop-color:#CAE095"/>
			<stop  offset="0.0239" style="stop-color:#AFC082"/>
			<stop  offset="0.0943" style="stop-color:#79815A"/>
			<stop  offset="0.1703" style="stop-color:#50543B"/>
			<stop  offset="0.2502" style="stop-color:#333524"/>
			<stop  offset="0.3348" style="stop-color:#1C1D0F"/>
			<stop  offset="0.4256" style="stop-color:#030300"/>
			<stop  offset="0.525" style="stop-color:#000000"/>
			<stop  offset="0.6374" style="stop-color:#000000"/>
			<stop  offset="0.7736" style="stop-color:#000000"/>
			<stop  offset="1" style="stop-color:#000000"/>
		</radialGradient>
		<circle display="inline" fill="url(#SVGID_23_)" cx="257.784" cy="195.386" r="0.577"/>
		
			<radialGradient id="SVGID_24_" cx="193.3335" cy="220.2422" r="0.5771" gradientTransform="matrix(1 0 0 -1 126 485.7422)" gradientUnits="userSpaceOnUse">
			<stop  offset="0" style="stop-color:#CAE095"/>
			<stop  offset="0.0239" style="stop-color:#AFC082"/>
			<stop  offset="0.0943" style="stop-color:#79815A"/>
			<stop  offset="0.1703" style="stop-color:#50543B"/>
			<stop  offset="0.2502" style="stop-color:#333524"/>
			<stop  offset="0.3348" style="stop-color:#1C1D0F"/>
			<stop  offset="0.4256" style="stop-color:#030300"/>
			<stop  offset="0.525" style="stop-color:#000000"/>
			<stop  offset="0.6374" style="stop-color:#000000"/>
			<stop  offset="0.7736" style="stop-color:#000000"/>
			<stop  offset="1" style="stop-color:#000000"/>
		</radialGradient>
		<circle display="inline" fill="url(#SVGID_24_)" cx="319.333" cy="265.5" r="0.577"/>
		
			<radialGradient id="SVGID_25_" cx="185.1597" cy="229.5537" r="4.3291" gradientTransform="matrix(1 0 0 -1 126 485.7422)" gradientUnits="userSpaceOnUse">
			<stop  offset="0.05" style="stop-color:#000000"/>
			<stop  offset="0.1912" style="stop-color:#000800"/>
			<stop  offset="0.3325" style="stop-color:#072D0F"/>
			<stop  offset="0.4638" style="stop-color:#17461D"/>
			<stop  offset="0.5812" style="stop-color:#205A26"/>
			<stop  offset="0.6806" style="stop-color:#26672B"/>
			<stop  offset="0.75" style="stop-color:#286C2C"/>
			<stop  offset="0.7553" style="stop-color:#336C2A"/>
			<stop  offset="0.7931" style="stop-color:#5B6C1A"/>
			<stop  offset="0.8244" style="stop-color:#6E6B07"/>
			<stop  offset="0.8475" style="stop-color:#776B00"/>
			<stop  offset="0.86" style="stop-color:#7B6B00"/>
			<stop  offset="0.8801" style="stop-color:#786800"/>
			<stop  offset="0.898" style="stop-color:#6F6100"/>
			<stop  offset="0.9151" style="stop-color:#635500"/>
			<stop  offset="0.9317" style="stop-color:#524500"/>
			<stop  offset="0.9479" style="stop-color:#3E3300"/>
			<stop  offset="0.9639" style="stop-color:#271E00"/>
			<stop  offset="0.9796" style="stop-color:#090000"/>
			<stop  offset="0.9948" style="stop-color:#000000"/>
			<stop  offset="1" style="stop-color:#000000"/>
		</radialGradient>
		
			<circle display="inline" opacity="0.2" fill="url(#SVGID_25_)" enable-background="new    " cx="311.159" cy="256.188" r="4.329"/>
		<line display="inline" fill="none" x1="155.833" y1="79.25" x2="319.333" y2="265.5"/>
		
			<radialGradient id="SVGID_26_" cx="29.833" cy="406.4922" r="11.543" gradientTransform="matrix(1 0 0 -1 126 485.7422)" gradientUnits="userSpaceOnUse">
			<stop  offset="0" style="stop-color:#000000"/>
			<stop  offset="0.73" style="stop-color:#93432A"/>
			<stop  offset="1" style="stop-color:#000000"/>
		</radialGradient>
		
			<circle display="inline" opacity="0.15" fill="url(#SVGID_26_)" enable-background="new    " cx="155.833" cy="79.25" r="11.543"/>
		
			<radialGradient id="SVGID_27_" cx="29.833" cy="406.4922" r="5.7712" gradientTransform="matrix(1 0 0 -1 126 485.7422)" gradientUnits="userSpaceOnUse">
			<stop  offset="0.15" style="stop-color:#FFFFFF"/>
			<stop  offset="0.2134" style="stop-color:#D7C0BE"/>
			<stop  offset="0.2931" style="stop-color:#B68A8A"/>
			<stop  offset="0.362" style="stop-color:#A16A6B"/>
			<stop  offset="0.4166" style="stop-color:#95585B"/>
			<stop  offset="0.45" style="stop-color:#915155"/>
			<stop  offset="0.5442" style="stop-color:#78312F"/>
			<stop  offset="0.6472" style="stop-color:#5C0E05"/>
			<stop  offset="0.7362" style="stop-color:#410000"/>
			<stop  offset="0.8068" style="stop-color:#200000"/>
			<stop  offset="0.85" style="stop-color:#000000"/>
			<stop  offset="0.856" style="stop-color:#120000"/>
			<stop  offset="0.8623" style="stop-color:#300000"/>
			<stop  offset="0.8686" style="stop-color:#470000"/>
			<stop  offset="0.875" style="stop-color:#5C0000"/>
			<stop  offset="0.8815" style="stop-color:#751400"/>
			<stop  offset="0.888" style="stop-color:#912A15"/>
			<stop  offset="0.8945" style="stop-color:#B44126"/>
			<stop  offset="0.9" style="stop-color:#D65836"/>
			<stop  offset="0.9063" style="stop-color:#BD472B"/>
			<stop  offset="0.916" style="stop-color:#9D311B"/>
			<stop  offset="0.9262" style="stop-color:#801D09"/>
			<stop  offset="0.9367" style="stop-color:#690900"/>
			<stop  offset="0.9475" style="stop-color:#530000"/>
			<stop  offset="0.9588" style="stop-color:#410000"/>
			<stop  offset="0.9707" style="stop-color:#290000"/>
			<stop  offset="0.9838" style="stop-color:#0F0000"/>
			<stop  offset="1" style="stop-color:#000000"/>
		</radialGradient>
		<circle display="inline" opacity="0.5" fill="url(#SVGID_27_)" enable-background="new    " cx="155.833" cy="79.25" r="5.771"/>
		
			<radialGradient id="SVGID_28_" cx="29.833" cy="406.4922" r="4.8103" gradientTransform="matrix(1 0 0 -1 126 485.7422)" gradientUnits="userSpaceOnUse">
			<stop  offset="0.15" style="stop-color:#FFFFFF"/>
			<stop  offset="0.2824" style="stop-color:#9C9593"/>
			<stop  offset="0.4253" style="stop-color:#5A5250"/>
			<stop  offset="0.5636" style="stop-color:#302A28"/>
			<stop  offset="0.6936" style="stop-color:#0F0704"/>
			<stop  offset="0.8134" style="stop-color:#000000"/>
			<stop  offset="0.9192" style="stop-color:#000000"/>
			<stop  offset="1" style="stop-color:#000000"/>
		</radialGradient>
		<circle display="inline" fill="url(#SVGID_28_)" cx="155.833" cy="79.25" r="4.81"/>
		
			<polyline display="inline" opacity="0.03" fill="none" stroke="#FFFFFF" stroke-width="2" stroke-miterlimit="10" enable-background="new    " points="
			155.833,79.25 162.394,83.125 155.833,79.25 149.273,75.375 155.833,79.25 151.958,85.81 155.833,79.25 159.709,72.69 
			155.833,79.25 148.137,97.188 155.833,79.25 163.53,61.312 155.833,79.25 137.896,71.553 155.833,79.25 173.771,86.947 
			155.833,79.25 152.735,100.072 155.833,79.25 158.932,58.428 155.833,79.25 135.012,76.152 155.833,79.25 176.655,82.348 
			155.833,79.25 155.955,81.836 155.833,79.25 155.712,76.664 155.833,79.25 153.247,79.371 155.833,79.25 158.42,79.129 
			155.833,79.25 152.978,91.031 155.833,79.25 158.689,67.469 155.833,79.25 144.052,76.394 155.833,79.25 167.615,82.106 
			155.833,79.25 167.309,99.383 155.833,79.25 144.358,59.117 155.833,79.25 135.701,90.726 155.833,79.25 175.966,67.774 
			155.833,79.25 163.235,105.201 155.833,79.25 148.432,53.299 155.833,79.25 129.882,86.652 155.833,79.25 181.785,71.848 
			155.833,79.25 158.417,85.961 155.833,79.25 153.25,72.539 155.833,79.25 149.123,81.834 155.833,79.25 162.544,76.666 
			155.833,79.25 158.644,81.4 155.833,79.25 153.023,77.1 155.833,79.25 153.683,82.061 155.833,79.25 157.984,76.439 
			155.833,79.25 152.637,96.84 155.833,79.25 159.03,61.66 155.833,79.25 138.243,76.053 155.833,79.25 173.424,82.447 
			155.833,79.25 156.016,80.07 155.833,79.25 155.651,78.43 155.833,79.25 155.013,79.432 155.833,79.25 156.654,79.068 
			155.833,79.25 156.021,80.666 155.833,79.25 155.646,77.834 155.833,79.25 154.418,79.437 155.833,79.25 157.249,79.063 
			155.833,79.25 157.487,81.915 155.833,79.25 154.18,76.585 155.833,79.25 153.168,80.903 155.833,79.25 158.499,77.597 
			155.833,79.25 160.323,91.453 155.833,79.25 151.344,67.047 155.833,79.25 143.631,83.739 155.833,79.25 168.036,74.761 
			155.833,79.25 152.075,106.111 155.833,79.25 159.592,52.389 155.833,79.25 128.973,75.491 155.833,79.25 182.694,83.009 		"/>
		
			<radialGradient id="SVGID_29_" cx="193.3335" cy="220.2422" r="8.6572" gradientTransform="matrix(1 0 0 -1 126 485.7422)" gradientUnits="userSpaceOnUse">
			<stop  offset="0.64" style="stop-color:#000000"/>
			<stop  offset="0.7002" style="stop-color:#000000"/>
			<stop  offset="0.7219" style="stop-color:#000000"/>
			<stop  offset="0.7374" style="stop-color:#000000"/>
			<stop  offset="0.7499" style="stop-color:#000000"/>
			<stop  offset="0.7606" style="stop-color:#000000"/>
			<stop  offset="0.7701" style="stop-color:#000100"/>
			<stop  offset="0.7787" style="stop-color:#001200"/>
			<stop  offset="0.7866" style="stop-color:#002300"/>
			<stop  offset="0.7936" style="stop-color:#003306"/>
			<stop  offset="0.8" style="stop-color:#004510"/>
			<stop  offset="0.8034" style="stop-color:#0F3E0A"/>
			<stop  offset="0.812" style="stop-color:#272F00"/>
			<stop  offset="0.8207" style="stop-color:#302000"/>
			<stop  offset="0.8292" style="stop-color:#351000"/>
			<stop  offset="0.8375" style="stop-color:#380000"/>
			<stop  offset="0.8455" style="stop-color:#390000"/>
			<stop  offset="0.8531" style="stop-color:#3A0000"/>
			<stop  offset="0.86" style="stop-color:#3A0000"/>
			<stop  offset="0.8632" style="stop-color:#310000"/>
			<stop  offset="0.8694" style="stop-color:#220000"/>
			<stop  offset="0.8765" style="stop-color:#150000"/>
			<stop  offset="0.8841" style="stop-color:#090000"/>
			<stop  offset="0.8926" style="stop-color:#010000"/>
			<stop  offset="0.9021" style="stop-color:#000000"/>
			<stop  offset="0.9132" style="stop-color:#000000"/>
			<stop  offset="0.927" style="stop-color:#000000"/>
			<stop  offset="0.9464" style="stop-color:#000000"/>
			<stop  offset="1" style="stop-color:#000000"/>
		</radialGradient>
		<circle display="inline" opacity="0.5" fill="url(#SVGID_29_)" enable-background="new    " cx="319.333" cy="265.5" r="8.657"/>
		
			<radialGradient id="SVGID_30_" cx="94.7114" cy="332.5879" r="0.3814" gradientTransform="matrix(1 0 0 -1 126 485.7422)" gradientUnits="userSpaceOnUse">
			<stop  offset="0.1" style="stop-color:#272900"/>
			<stop  offset="0.1254" style="stop-color:#232500"/>
			<stop  offset="0.2634" style="stop-color:#0D0E00"/>
			<stop  offset="0.4045" style="stop-color:#000000"/>
			<stop  offset="0.5473" style="stop-color:#000000"/>
			<stop  offset="0.6924" style="stop-color:#000000"/>
			<stop  offset="0.8414" style="stop-color:#000000"/>
			<stop  offset="1" style="stop-color:#000000"/>
		</radialGradient>
		<circle display="inline" fill="url(#SVGID_30_)" cx="220.711" cy="153.154" r="0.381"/>
		
			<radialGradient id="SVGID_31_" cx="188.481" cy="225.7695" r="2.0723" gradientTransform="matrix(1 0 0 -1 126 485.7422)" gradientUnits="userSpaceOnUse">
			<stop  offset="0.1" style="stop-color:#000000"/>
			<stop  offset="0.199" style="stop-color:#000000"/>
			<stop  offset="0.3253" style="stop-color:#000000"/>
			<stop  offset="0.4545" style="stop-color:#000407"/>
			<stop  offset="0.5853" style="stop-color:#000D12"/>
			<stop  offset="0.7183" style="stop-color:#00131A"/>
			<stop  offset="0.8547" style="stop-color:#00171F"/>
			<stop  offset="1" style="stop-color:#001821"/>
		</radialGradient>
		<circle display="inline" fill="url(#SVGID_31_)" cx="314.481" cy="259.973" r="2.073"/>
		
			<radialGradient id="SVGID_32_" cx="146.9043" cy="273.1328" r="2.762" gradientTransform="matrix(1 0 0 -1 126 485.7422)" gradientUnits="userSpaceOnUse">
			<stop  offset="0.1" style="stop-color:#272900"/>
			<stop  offset="0.1254" style="stop-color:#232500"/>
			<stop  offset="0.2634" style="stop-color:#0D0E00"/>
			<stop  offset="0.4045" style="stop-color:#000000"/>
			<stop  offset="0.5473" style="stop-color:#000000"/>
			<stop  offset="0.6924" style="stop-color:#000000"/>
			<stop  offset="0.8414" style="stop-color:#000000"/>
			<stop  offset="1" style="stop-color:#000000"/>
		</radialGradient>
		<circle display="inline" fill="url(#SVGID_32_)" cx="272.904" cy="212.61" r="2.762"/>
		
			<radialGradient id="SVGID_33_" cx="71.2402" cy="359.3242" r="1.3669" gradientTransform="matrix(1 0 0 -1 126 485.7422)" gradientUnits="userSpaceOnUse">
			<stop  offset="0.1" style="stop-color:#272900"/>
			<stop  offset="0.1254" style="stop-color:#232500"/>
			<stop  offset="0.2634" style="stop-color:#0D0E00"/>
			<stop  offset="0.4045" style="stop-color:#000000"/>
			<stop  offset="0.5473" style="stop-color:#000000"/>
			<stop  offset="0.6924" style="stop-color:#000000"/>
			<stop  offset="0.8414" style="stop-color:#000000"/>
			<stop  offset="1" style="stop-color:#000000"/>
		</radialGradient>
		<circle display="inline" fill="url(#SVGID_33_)" cx="197.241" cy="126.418" r="1.367"/>
		
			<radialGradient id="SVGID_34_" cx="82.2856" cy="346.7412" r="0.0844" gradientTransform="matrix(1 0 0 -1 126 485.7422)" gradientUnits="userSpaceOnUse">
			<stop  offset="0.1" style="stop-color:#CEA759"/>
			<stop  offset="0.2021" style="stop-color:#886C3C"/>
			<stop  offset="0.3094" style="stop-color:#574326"/>
			<stop  offset="0.4197" style="stop-color:#342613"/>
			<stop  offset="0.5309" style="stop-color:#180C00"/>
			<stop  offset="0.6434" style="stop-color:#000000"/>
			<stop  offset="0.7577" style="stop-color:#000000"/>
			<stop  offset="0.8751" style="stop-color:#000000"/>
			<stop  offset="1" style="stop-color:#000000"/>
		</radialGradient>
		<circle display="inline" fill="url(#SVGID_34_)" cx="208.286" cy="139.001" r="0.084"/>
	</g>
</g>
</svg>
