<?xml version="1.0" encoding="utf-8"?>
<!-- Generator: Adobe Illustrator 16.0.0, SVG Export Plug-In . SVG Version: 6.00 Build 0)  -->
<!DOCTYPE svg PUBLIC "-//W3C//DTD SVG 1.1//EN" "http://www.w3.org/Graphics/SVG/1.1/DTD/svg11.dtd">
<svg version="1.1" id="Layer_1" xmlns="http://www.w3.org/2000/svg" xmlns:xlink="http://www.w3.org/1999/xlink" x="0px" y="0px"
	 width="864px" height="864px" viewBox="0 0 864 864" enable-background="new 0 0 864 864" xml:space="preserve">
<style>
path, line, polyline {
  stroke-width: 2;
  animation-fill-mode: forwards;
  animation-iteration-count: infinite;
  animation-name: draw;
  animation-timing-function: linear; }
  path#first, line#first, polyline#first {
    stroke: Dodgerblue;
    stroke-dasharray: 1000;
    stroke-dashoffset: 1000;
    animation-duration: 15s; }
    path#first.glasses, line#first.glasses, polyline#first.glasses {
      stroke: #00ffcc; }

@keyframes draw {
  100% {
    stroke-dashoffset: 0;
    opacity: 1;
 } }
</style>
<path id="first" fill="none" stroke="#4888C8" stroke-miterlimit="10" d="M320.862,495.885c0.406,0.039,13.132,0.896,13.132,11.755
	c0,10.86-19.566,6.058-19.995-2.834C313.57,495.915,320.862,495.885,320.862,495.885z"/>
<path id="first" fill="none" stroke="#4888C8" stroke-miterlimit="10" d="M313.982,524.838c0,0-18.149-6.671-13.315-12.671
	s13.333-0.163,15.833,2.21s3.833-1.544,3.833-1.294s-2.362,4.333-3.098,7.75c-0.736,3.417,1.634,1.53,2.656,4.004
	c1.023,2.474,2.442-0.17,5.774,3.413s2.782,6.088,6.974,4.294c4.192-1.794,4.182-2.377,1.354-5.377s-7.496-0.333-7.329-3.75
	s0.921,1.046,2.2-4.502c1.278-5.548,2.405-4.208,0.301-7.222c-2.105-3.015-5.296-0.829-6.917,0"/>
<path id="first" fill="none" stroke="#4888C8" stroke-miterlimit="10" d="M387.753,510.307c-20.991-2.284-55.738-5.416-55.738-5.416"/>
<path id="first" fill="none" stroke="#4888C8" stroke-miterlimit="10" d="M333.995,533.139c0,0,69.005,14.945,69.505,14.403
	c0.433-0.47,16.82,2.676,21.188-9.724"/>
<path id="first" fill="none" stroke="#4888C8" stroke-miterlimit="10" d="M425.321,537.013c-2.923,6.195-9.765,10.543-17.737,10.543
	c-10.631,0-19.25-7.729-19.25-17.263c0-1.626,0.251-3.199,0.719-4.691"/>
<path id="first" fill="none" stroke="#4888C8" stroke-miterlimit="10" d="M392.923,535.063c0,0-0.46,6.117,10.045,7.544
	c0,0,0.738-3.033,0.34-4.24c0,0-3.804-1.233-3.918-3.303L392.923,535.063L392.923,535.063z"/>
<path id="first" fill="none" stroke="#4888C8" stroke-miterlimit="10" d="M407.86,544.025c0,0,9.347,0.379,11.569-6.938
	c0,0-4.633-0.543-6.479-0.276c0,0-1.901,2.644-5.064,2.702L407.86,544.025z"/>
<path id="first" fill="none" stroke="#EE252F" stroke-miterlimit="10" d="M517,526.216L528.75,519c0,0,5.96,1.131,1.5,6.561
	c-4.46,5.431-13.25,7.002-13.25,7.002S513.415,528.418,517,526.216z"/>
<path id="first" fill="none" stroke="#EE252F" stroke-miterlimit="10" d="M468.25,430c0,0-28.5,24-13.75,29.5
	c12.035,4.487,13.528,4.76,16.749,5.613c0.727,0.191,1.541,0.414,2.584,0.721c5.667,1.666,9.75-3.06,9.417,3.166
	s-4.084,10.5,2.083,17.5s1-6.166,3.5-16.166s0.668-17.668-3.166-20.834s-7.668,0.334-9.334,4.167s-14.462,2.501-13.897-0.833
	c0.565-3.334,32.23-51.167,43.897-51.834s7.792,18.625-10.833,17.875c0,0-8.232,5.125,2.509,5.375s22.616-2.875,22.741-14.125
	s1.375-11.125,4.875-7.875s6.25,10.875,8.625,15.25s1.75,2.25,1.125-4.25s-2.125-10.125-4-14.25s1.875-3.25,1.75-6
	s-3.75-6-5.25-7.125s-5.5-0.875-6.125,1.875s-0.125,3.5-2.25,5s-11.5,1.75-16,2.125s-7.375,0.875-9.75,3.5S468.25,430,468.25,430z"
	/>
<path id="first" fill="none" stroke="#EE252F" stroke-miterlimit="10" d="M387.14,505.215C376.43,484.783,358.25,449,358.25,449L335,492
	c0,0-1.75,7.75-4.75,9.5s-7.25-0.273-7.25-0.273l31-57.56l5.803-1.882"/>
<path id="first" fill="none" stroke="#EE252F" stroke-miterlimit="10" d="M372.627,445.324c-3.993-0.046-6.377-0.074-6.377-0.074l10.488,19.881
	"/>
<path id="first" fill="none" stroke="#EE252F" stroke-miterlimit="10" d="M452.338,466.326c5.141-5.881,8.702-10.316,8.912-11.576
	c0.75-4.5,1-9-5-8.75c-2.243,0.093-15.393,0.012-30.979-0.127"/>
<path id="first" fill="none" stroke="#EE252F" stroke-miterlimit="10" d="M449.05,481.589C435.585,498.36,421,515.5,421,515.5s-15,2.25-9.5-4.5
	c3.088-3.79,18.153-19.636,30.906-33.604"/>
<path id="first" fill="none" stroke="#EE252F" stroke-miterlimit="10" d="M415.464,438.133l40.87-1.274c0,0,1.334-1.689,0-4.023
	s-6.001-3.167-1.834-7s2.037-2.833,7.936-3.333c5.899-0.5,13.581-2.22,13.581-2.22s6.817,4.553,3.15,10.22s-9.833,3.5-10,8.5
	s-0.001,7,2.083,11c0.645,1.238-3.921,7.981-10.534,16.704"/>
<line id="first" fill="none" stroke="#4888C8" stroke-miterlimit="10" x1="316.5" y1="499.081" x2="279.801" y2="459.41"/>
<line id="first" fill="none" stroke="#4888C8" stroke-miterlimit="10" x1="326.333" y1="493.929" x2="292.625" y2="453.875"/>
<path id="first" fill="none" stroke="#EE252F" stroke-miterlimit="10" d="M388.973,523.013l-56.958-5.685l0.906-3.432l45.849,2.771l2.23-2.771
	l-46.521-19.969c0,0,0.021-4.337,4.521-2.633c3.285,1.244,32.849,12.25,48.582,18.105"/>
<path id="first" fill="none" stroke="#EE252F" stroke-miterlimit="10" d="M478.417,452.917c0,0-3-10.999,1.25-14.833s8.75-2.416,4.75-5.25
	s-5.5-3.75-5.5-3.75l-6.25,11.25c0,0,7.5,4.416,11.25,4.833s6.667,11.084,6.75,12.917"/>
<path id="first" fill="none" stroke="#EE252F" stroke-miterlimit="10" d="M486.625,442.75c0.875-0.5,0.625-1.5,2.75-5.25s-0.5-6.125-2.75-6
	s-6.378,4.881-6.438,1.625"/>
<path id="first" fill="none" stroke="#EE252F" stroke-miterlimit="10" d="M485.875,443.584L484,437.123c0,0-5.832-2.293-6.176-3.873"/>
<path id="first" fill="none" stroke="#EE252F" stroke-miterlimit="10" d="M469.217,468.361c0.487-0.986,0.818-1.973,0.95-2.943"/>
<path id="first" fill="none" stroke="#EE252F" stroke-miterlimit="10" d="M452.834,485.833c-4.178,1.253-3.334,0.412-0.459-1.692"/>
<line id="first" fill="none" stroke="#EE252F" stroke-miterlimit="10" x1="477.824" y1="466.326" x2="475.454" y2="473.5"/>
<path id="first" fill="none" stroke="#EE252F" stroke-miterlimit="10" d="M460.063,488.468c0,0-5.85-0.454-7.229-2.048"/>
<g>
	<path id="first" fill="none" stroke="#4888C8" stroke-miterlimit="10" d="M488.56,473.61c4.589-0.985,9.812-1.392,15.69-1.11
		c0,0,75,5.75,85,69.25c0,0,1.416,49.915-66.25,30.915c-47.416-13.313-70.199-58.708-56.736-83.596"/>
	<path id="first" fill="none" stroke="#4888C8" stroke-miterlimit="10" d="M477.824,477.531c1.493-0.828,3.099-1.567,4.818-2.209"/>
	<path id="first" fill="none" stroke="#4888C8" stroke-miterlimit="10" d="M490.254,463.4c7.15-1.213,14.404-1.33,20.746-1.07
		c0,0,47,3.42,76.75,50.17c28.5,42.75-7.5,74.5-41.75,73.25s-91.5-39.5-91.5-80c0-7.75,1.245-14.158,3.416-19.447"/>
	<path id="first" fill="none" stroke="#4888C8" stroke-miterlimit="10" d="M477.352,467.068c1.453-0.621,2.941-1.169,4.455-1.65"/>
	<polyline id="first" fill="none" stroke="#4888C8" stroke-miterlimit="10" points="514.096,569.684 523.667,534.333 535.081,575.482 
		553.352,576.911 531.333,527.333 	"/>
	<line id="first" fill="none" stroke="#4888C8" stroke-miterlimit="10" x1="568.908" y1="573.681" x2="523.313" y2="533.125"/>
	<line id="first" fill="none" stroke="#4888C8" stroke-miterlimit="10" x1="496.75" y1="558.75" x2="520.75" y2="532.563"/>
	<line id="first" fill="none" stroke="#4888C8" stroke-miterlimit="10" x1="483.25" y1="546.791" x2="515.5" y2="528.75"/>
	<line id="first" fill="none" stroke="#4888C8" stroke-miterlimit="10" x1="471.25" y1="530.25" x2="517" y2="530.25"/>
	<line id="first" fill="none" stroke="#4888C8" stroke-miterlimit="10" x1="465.25" y1="515.5" x2="525.844" y2="521.25"/>
	<polyline id="first" fill="none" stroke="#4888C8" stroke-miterlimit="10" points="465.25,499 515.5,527.333 585.25,552.122 	"/>
	<polyline id="first" fill="none" stroke="#4888C8" stroke-miterlimit="10" points="588.21,536.343 530.25,521.25 571.606,503.981 	"/>
	<line id="first" fill="none" stroke="#4888C8" stroke-miterlimit="10" x1="582.536" y1="520.162" x2="528.75" y2="530.25"/>
	<polyline id="first" fill="none" stroke="#4888C8" stroke-miterlimit="10" points="581.359,564.503 528.75,522.5 471.25,489.25 	"/>
	<line id="first" fill="none" stroke="#4888C8" stroke-miterlimit="10" x1="508" y1="472.942" x2="524.833" y2="524.001"/>
	<polyline id="first" fill="none" stroke="#4888C8" stroke-miterlimit="10" points="533.724,479.453 526.305,523 553.922,489.25 	"/>
	<path id="first" fill="none" stroke="#4888C8" stroke-miterlimit="10" d="M480.188,485.051c14.66,20.75,35.076,49.157,36.813,48.949
		c2.733-0.328,3-4.024-1.083-9.304c-4.083-5.28-27.084-36.029-27.084-46.029l37.011,39.708c0,0,6.823,0.792,4.406-4.708
		s-36.125-40.929-36.125-40.929"/>
	<path id="first" fill="none" stroke="#4888C8" stroke-miterlimit="10" d="M465.25,463.75c0,0,0.924,1.331,2.525,3.626"/>
</g>
<g>
	<path id="first" fill="none" stroke="#4888C8" stroke-miterlimit="10" d="M349.664,464.881c16.36,9.124,32.247,24.538,36.324,50.457
		c0,0,1.296,45.716-60.606,28.313c-61.901-17.4-77.911-94.638-17.151-91.738c0,0,17.426,1.337,35.884,10.108"/>
	<path id="first" fill="none" stroke="#4888C8" stroke-miterlimit="10" d="M354.079,457.451c7.463,4.854,15.154,11.276,22.265,19.771"/>
	<path id="first" fill="none" stroke="#4888C8" stroke-miterlimit="10" d="M390.028,532.465c-7.852,14.896-25.981,23.815-43.606,23.172
		c-31.333-1.146-83.705-36.177-83.705-73.271c0-37.093,31.104-40.61,51.688-39.769c0,0,15.828,1.153,34.354,11.624"/>
	<polyline id="first" fill="none" stroke="#4888C8" stroke-miterlimit="10" points="317.236,540.921 325.992,508.544 336.434,546.232 
		353.147,547.542 333.005,502.134 	"/>
	<line id="first" fill="none" stroke="#4888C8" stroke-miterlimit="10" x1="367.379" y1="544.582" x2="325.667" y2="507.438"/>
	<line id="first" fill="none" stroke="#4888C8" stroke-miterlimit="10" x1="301.368" y1="530.907" x2="323.324" y2="506.923"/>
	<line id="first" fill="none" stroke="#4888C8" stroke-miterlimit="10" x1="289.018" y1="519.954" x2="318.521" y2="503.432"/>
	<line id="first" fill="none" stroke="#4888C8" stroke-miterlimit="10" x1="278.041" y1="504.806" x2="319.893" y2="504.806"/>
	<line id="first" fill="none" stroke="#4888C8" stroke-miterlimit="10" x1="272.552" y1="491.296" x2="327.983" y2="496.563"/>
	<polyline id="first" fill="none" stroke="#4888C8" stroke-miterlimit="10" points="270.517,475.699 318.521,502.134 382.329,524.837 	"/>
	<polyline id="first" fill="none" stroke="#4888C8" stroke-miterlimit="10" points="385.037,510.385 332.015,496.563 369.847,480.747 	"/>
	<line id="first" fill="none" stroke="#4888C8" stroke-miterlimit="10" x1="379.846" y1="495.565" x2="330.643" y2="504.806"/>
	<polyline id="first" fill="none" stroke="#4888C8" stroke-miterlimit="10" points="378.77,536.176 330.643,497.706 274.563,466.188 	"/>
	<line id="first" fill="none" stroke="#4888C8" stroke-miterlimit="10" x1="311.66" y1="452.317" x2="327.059" y2="499.081"/>
	<polyline id="first" fill="none" stroke="#4888C8" stroke-miterlimit="10" points="335.192,458.281 328.405,498.165 353.669,467.255 	"/>
</g>
<path id="first" fill="none" stroke="#4888C8" stroke-miterlimit="10" d="M333,458.281c0.085,1.331,3.167,0.219,3.917,1.719s0.5,3,1.75,3.25
	s3.637-1,3.637-1s0.863-4.417,1.863-5.5s2.417-4,3.333-6.5s1.333-4.166,1.917-5.833s1.833-4.25,1.833-4.25s-0.833-0.916-2.083,0
	s-0.167,1.666-3,4.416s-7.25,6.219-8.75,7.734C335.917,453.832,332.917,456.979,333,458.281z"/>
<path id="first" fill="none" stroke="#6AC8C5" stroke-miterlimit="10" d="M404.882,453.909c-0.547,3.575-1.221,6.983-1.455,9.841
	c-0.573,7-0.76,27.25,0.74,39.682c1.5,12.433,16.416,14.624,22.667,15.483c6.251,0.858,17.666,4.585,12.666,11.992
	s-18,8.093-24.667,5.839s-7.833,1.087-19-1.746s-5.072-4.018-7.5-21.104c-2.428-17.087-8.5-27.729-11.993-36.679
	s0.857-11.217,3.505-18.938c2.648-7.722,2.488-5.114-2.179-9.948S355.244,441,355.244,441s-33.744-11.25-53.876-26.5
	c-20.132-15.25-13.83-30.14-13.83-30.14s2.586-6.444,3.461-13.194s2.946-16.667,8.848-21.417c5.902-4.75,15.694-14.75,18.672-17.5
	c2.979-2.75,13.229-11,25.479-11.75s17.508-3,23.379-3.75s16.444-1.25,17.658-1.5"/>
<path id="first" fill="none" stroke="#6AC8C5" stroke-miterlimit="10" d="M358.525,401.75c0,0-18.461-7.762,11.812,5.864"/>
<path id="first" fill="none" stroke="#6AC8C5" stroke-miterlimit="10" d="M333.995,388.75c3.255-1,18.005-6.506,28.005-3.503"/>
<path id="first" fill="none" stroke="#6AC8C5" stroke-miterlimit="10" d="M360.5,378.5c0,0,2.021-0.14,3.636,8.055
	C365.751,394.75,374.5,417,376.5,417.5s13.417,26.834,25.125,34.334s35.709,22.324,43.709,27.412s13.5,8.354,16.333,9.222
	s5.917,0.218,7.917,0c0,0,0.583,0.366,0.833-1.051s2.833-0.167,2.833-1.167s-0.25-0.416,0-1.833s3.25,1.75,4,1
	s3.701-0.257,5.417-0.167s2.916-2.75-2.417-6s-8.333-1.917-9-3.75s5.751,2.666,5.167,0.083s-5.084-8-11.167-8.833
	s-10.917,2.416-17.25-3s-38-29.25-42.5-34.083s-5.833-24.667-9.833-31.333s-1.389-17-1.611-22c-0.222-5-1.556-4.334,0.944-7.167
	s10.333-4,13.333-7.5s2.5-0.5,5,2.667s4,2.5,4.5-2S418.167,356,421.5,359s16.5,16.221,25.5,25.36c9,9.139,14.25,12.14,24.25,16.64
	s17.5,10.125,24.5,11.875s4.245,4.317,7.375,4s7.375-3.5,11.375-0.25s5.059,2.145,4.654-0.303c-0.405-2.448-5.279-3.947-5.154-5.072
	"/>
<path id="first" fill="none" stroke="#6AC8C5" stroke-miterlimit="10" d="M521.125,414.5c0.375,0,5.625-0.75,6.375,3.5s-0.625,6.813,1.25,5.218
	c1.875-1.594,3.125-4.843,1.625-8.218s-2.875-2.875-2.875-4.5s4.75,1.25,7.875,2.75s4,0.534,2.125-3.233
	c-1.875-3.767-10.375-7.392-14.875-6.892"/>
<path id="first" fill="none" stroke="#6AC8C5" stroke-miterlimit="10" d="M510.75,406c0,0-5.625,1.75-6.125,0.875s-3.875-2-3.875-2"/>
<path id="first" fill="none" stroke="#6AC8C5" stroke-miterlimit="10" d="M492,399.25c0,0-21.499-20.75-26.833-25.917
	s-13.973-9.667-14.903-14.667c-0.93-5-6.265-8.5-6.931-11.5s-3.266-5.167-3.466-7"/>
<path id="first" fill="none" stroke="#6AC8C5" stroke-miterlimit="10" d="M415.464,438.133c0,0,0.786-6.508-1.214-9.383s-13.5-14-13.375-15"/>
<path id="first" fill="none" stroke="#6AC8C5" stroke-miterlimit="10" d="M372.25,446.75c0,0,8,4.188,2.25,11.531"/>
<path id="first" fill="none" stroke="#6AC8C5" stroke-miterlimit="10" d="M365.5,479.246c-0.833,2.088-10.167,3.231-9.167,9.66
	c1,6.428,2.333,8.527,12,10.812s11.03,5.944,15.971,7.721"/>
<path id="first" fill="none" stroke="#6AC8C5" stroke-miterlimit="10" d="M364.674,484.167c0,0-2.75,5.001,2.705,7.834s9.2,2.833,9.2,2.833
	s-4.413-2.232-5.413-6.366S364.674,484.167,364.674,484.167z"/>
<path id="first" fill="none" stroke="#6AC8C5" stroke-miterlimit="10" d="M294.25,376c2.5-1,20-13.5,26.75-12"/>
<path id="first" fill="none" stroke="#6AC8C5" stroke-miterlimit="10" d="M321,360.75c0,0,17.5,1,30.5,3.125s15.25-2.813,20.75-6.344
	C377.75,354,391.5,342,391.5,342"/>
<path id="first" fill="none" stroke="#6AC8C5" stroke-miterlimit="10" d="M358.525,377.5c0,0,3.304-14.948,15.889-21.474"/>
<path id="first" fill="none" stroke="#6AC8C5" stroke-miterlimit="10" d="M309.479,390.5c0,0,6.521-0.14,15.771-3.945
	c9.25-3.805,7.916-4.741,22.747-4.805"/>
<path id="first" fill="none" stroke="#6AC8C5" stroke-miterlimit="10" d="M356.25,412.75c0,0-26.75-13-25.5-22.25"/>
<path id="first" fill="none" stroke="#6AC8C5" stroke-miterlimit="10" d="M355.244,441c0,0,12.089-22.667,17.006-30.667"/>
<path id="first" fill="none" stroke="#6AC8C5" stroke-miterlimit="10" d="M342.304,436.154c0,0,8.302-21.488,21.832-29.654"/>
<path id="first" fill="none" stroke="#6AC8C5" stroke-miterlimit="10" d="M369.352,402.807c0,0,18.385,1.068,24.704-4.432"/>
<path id="first" fill="none" stroke="#6AC8C5" stroke-miterlimit="10" d="M399.164,409.087c0,0-5.78,8.81-24.035,6.736"/>
<path id="first" fill="none" stroke="#6AC8C5" stroke-miterlimit="10" d="M391.5,337.75c-0.375,0.375,7.625,21.177,18.375,18.276
	s0.75-0.901-2.5-4.026s-13.319-14.25-13.319-14.25"/>
<path id="first" fill="none" stroke="#6AC8C5" stroke-miterlimit="10" d="M389,337.75c0,0-10.667-4.417-10.833-7.417s-0.5-3.667,2.167-5.667
	s6.813-5.333,6.813-5.333"/>
<path id="first" fill="none" stroke="#6AC8C5" stroke-miterlimit="10" d="M430.37,367.629c0,0,17.819,0.307,19.6-10.099"/>
<path id="first" fill="none" stroke="#6AC8C5" stroke-miterlimit="10" d="M421.375,356.303c0.375,0.197,15.666,3.406,21.958-9.136"/>
<path id="first" fill="none" stroke="#6AC8C5" stroke-miterlimit="10" d="M384.606,497.797c0,0,12.331,6.417,18.819-2.23"/>
<path id="first" fill="none" stroke="#6AC8C5" stroke-miterlimit="10" d="M388.973,523.875c0,0,3.777-1.5,7.777-6.875s9.214-8.127,9.214-8.127"
	/>
<path id="first" fill="none" stroke="#6AC8C5" stroke-miterlimit="10" d="M413.645,518.5c-1.27,1.125-4.717,4.77-7.681,7.51
	s-2.104,3.865,3.84,1.865c5.945-2,4.696-5.5,6.071-7.25"/>
<path id="first" fill="none" stroke="#6AC8C5" stroke-miterlimit="10" d="M423.375,519.875c0,0-2.766,2.268-3.945,4.821
	c-1.179,2.553-4.18,4.679-3.555,5.804s3,2.033,6-1.608c3-3.641,1.267-3.001,3.446-5.195c0,0,2.642-3.32,4.348-3.195"/>
<path id="first" fill="none" stroke="#6AC8C5" stroke-miterlimit="10" d="M392.92,527c0,0-2.913,4.277,0,6.139
	c2.913,1.862,2.705-1.188,3.83-3.068s0-3.555-0.5-4.469S393.591,525.771,392.92,527z"/>
<path id="first" fill="none" stroke="#6AC8C5" stroke-miterlimit="10" d="M398.688,520.563c0,0-0.125,4.813,2.313,4
	c2.438-0.813,3.875-4.063,6.563-4.688"/>
<path id="first" fill="none" stroke="#64BC46" stroke-miterlimit="10" d="M391.487,319.333c0,0-2.821,8.667,0.013,13.167s4,4.667,9.5,10.5
	s12.5,11.833,19.5,12.333s10.207,1.167,11.854-0.667c1.647-1.834,1.479-5.281,2.479-7.641s1.084-2.443,2.084-2.943
	s-0.333-3.417,0-4.583s0.916-2.583,1.333-3.417"/>
<path id="first" fill="none" stroke="#64BC46" stroke-miterlimit="10" d="M440.732,325.833c0,0-0.269-5.667,0-7.667"/>
<path id="first" fill="none" stroke="#64BC46" stroke-miterlimit="10" d="M400.083,328c-0.25,0-11.049-8.706-7.667,0.542s7.917,11.458,9,10.708
	s1.333-2.25,1.25-3.25"/>
<path id="first" fill="none" stroke="#64BC46" stroke-miterlimit="10" d="M398.667,333.667c0,0-0.416,0.583-1.083-1.417
	s-1.558-2.667-0.362-2.333"/>
<path id="first" fill="none" stroke="#64BC46" stroke-miterlimit="10" d="M400.75,328.542l15.75,7.708c0,0,5.625,4.385,10.625,3.135
	s5.541-4.219,7.875-4.635s2.5,1.833,4,0.583s4-3.333,4-6.792s-0.91-4.208-2.83-1.958s-3.087,3.086-4.92,3.251
	s-3.708-1.918-9.625-0.335s-4.542,5.158-6.875,4.246s-18-6.871-18-6.871"/>
<path id="first" fill="none" stroke="#64BC46" stroke-miterlimit="10" d="M374.415,291.667c0,0,7.085,10.167,8.085,13.333s1.68,9,5.333,11.667
	s15,5.833,21,5.333s21.541-3.666,23.521-3.833C434.332,318,441.5,319,443,314s4.5-19-8.833-27.5
	C420.833,278,410.996,272.667,374.415,291.667z"/>
<path id="first" fill="none" stroke="#64BC46" stroke-miterlimit="10" d="M383.528,301.125c0,0,9.738,11.375,13.104,11.875
	s6.116,1.75,4.116-1.25s-12-11.25-16.375-10.625"/>
<path id="first" fill="none" stroke="#64BC46" stroke-miterlimit="10" d="M382.5,295c0,0,6.58,3.625,9.979,4.875c3.397,1.25,4.321,1.5,5.172,0
	c0.85-1.5-4.252-4-5.89-4.875C390.124,294.125,386.748,292.59,382.5,295z"/>
<path id="first" fill="none" stroke="#64BC46" stroke-miterlimit="10" d="M386.75,290.375c0,0,6.083-3.875,12.833-1.625s8.75,3.167,6.833,4.583
	s-5.084,1.833-7.75,0s-6.917-3.229-11.417-2.031"/>
<path id="first" fill="none" stroke="#64BC46" stroke-miterlimit="10" d="M401.917,305c0,0,4.833,11.333,22.833,11.5c0,0,4.583,0.417-0.5-2
	s-17.703-8.417-21.143-10"/>
<path id="first" fill="none" stroke="#64BC46" stroke-miterlimit="10" d="M401.917,302.333c0.333,0,4.704,0.167,12.81,3.833
	c8.106,3.666,14.313,7.833,13.252,8.167"/>
<path id="first" fill="none" stroke="#64BC46" stroke-miterlimit="10" d="M406.667,312.583c0,0,0,2.304,4.167,3.944s8.779,2.553,8.167,0.973"/>
<path id="first" fill="none" stroke="#64BC46" stroke-miterlimit="10" d="M409,298.167c0,0,18.75,13.333,21.5,14s3.834,1.083,1.417-2.667
	s-14.25-12.218-20-12.192"/>
<path id="first" fill="none" stroke="#64BC46" stroke-miterlimit="10" d="M423.25,291.302c0,0,7.764,15.06,10.007,16.087
	c2.243,1.027-3.55-9.109-5.278-12.833c-1.728-3.724-3.062-3.255-3.062-3.255"/>
<path id="first" fill="none" stroke="#64BC46" stroke-miterlimit="10" d="M410.75,284.833c0,0,1.154,5.167,3.494,7s2.423,3.197,4.256,2.724
	s3.167-1.474,1.417-4.224s-8.167-5.5-8.167-5.5"/>
<path id="first" fill="none" stroke="#64BC46" stroke-miterlimit="10" d="M422.833,284.833c-0.333-0.083,7.334,6.083,9,6.833
	s-0.001-1.167-1.584-3.417s-3.917-3.417-5-3.417"/>
<path id="first" fill="none" stroke="#64BC46" stroke-miterlimit="10" d="M434.667,289.743c0,0,4.001,7.523,4.167,11.349
	c0.166,3.826,0.167,8.076,0,8.826s1.893-3.25,1.779-6.833c-0.114-3.583-1.495-8.583-2.972-10.583"/>
<path id="first" fill="none" stroke="#64BC46" stroke-miterlimit="10" d="M393.333,284.833c0.25-0.249,8.167,0.501,11.083,2.001
	s3.417-0.263,2.25-2.048s-7.095-2.618-8.922-1.868s-2.578,0.083-3.578,0.75"/>
<path id="first" fill="none" stroke="#64BC46" stroke-miterlimit="10" d="M405.375,322.053c0,1.197-1.673,21.587,1.292,26.391"/>
<path id="first" fill="none" stroke="#64BC46" stroke-miterlimit="10" d="M409.398,322.625c0,0-1.894,23.947,0,27.5"/>
</svg>
