<?xml version="1.0" encoding="utf-8"?>
<!-- Generator: Adobe Illustrator 16.0.0, SVG Export Plug-In . SVG Version: 6.00 Build 0)  -->
<!DOCTYPE svg PUBLIC "-//W3C//DTD SVG 1.1//EN" "http://www.w3.org/Graphics/SVG/1.1/DTD/svg11.dtd">
<svg version="1.1" id="Layer_1" xmlns="http://www.w3.org/2000/svg" xmlns:xlink="http://www.w3.org/1999/xlink" x="0px" y="0px"
	 width="864px" height="864px" viewBox="0 0 864 864" enable-background="new 0 0 864 864" xml:space="preserve">
<g>
	<g>
		<g>
			<g>
				<g>
					<path fill="#005893" stroke="#000000" stroke-width="0.5" stroke-miterlimit="10" d="M449.28,320.899L302.358,523.121
						c-111.684-81.145-136.441-237.46-55.299-349.144C294.933,108.084,367.832,70.94,449.28,70.94V320.899z"/>
				</g>
			</g>
			<g>
				<g>
					<path fill="#3ABFEF" stroke="#000000" stroke-width="0.5" stroke-miterlimit="10" d="M449.28,320.899V70.94
						c138.047,0,249.957,111.911,249.957,249.959c0,138.048-111.91,249.958-249.957,249.958
						c-56.462,0-101.244-14.552-146.922-47.736L449.28,320.899z"/>
				</g>
			</g>
		</g>
	</g>
	<g>
		<path d="M491.31,326.913h-0.102l-5.764,3.11l-0.865-3.417l7.24-3.875h3.823v33.146h-4.334L491.31,326.913L491.31,326.913z"/>
		<path d="M526.651,325.893c-0.918-0.051-2.093,0-3.365,0.204c-7.039,1.173-10.762,6.323-11.525,11.78h0.152
			c1.582-2.091,4.334-3.825,8.006-3.825c5.865,0,9.996,4.233,9.996,10.709c0,6.068-4.131,11.678-11.016,11.678
			c-7.089,0-11.729-5.507-11.729-14.125c0-6.527,2.346-11.678,5.609-14.941c2.754-2.703,6.426-4.386,10.606-4.896
			c1.326-0.204,2.447-0.255,3.265-0.255L526.651,325.893L526.651,325.893z M525.376,345.016c0-4.742-2.703-7.598-6.834-7.598
			c-2.701,0-5.201,1.683-6.424,4.079c-0.308,0.51-0.513,1.173-0.513,1.989c0.104,5.456,2.603,9.485,7.294,9.485
			C522.774,352.972,525.376,349.759,525.376,345.016z"/>
		<path d="M546.134,319.672h4.486v15.4h0.104c0.714-1.275,1.836-2.397,3.211-3.162c1.326-0.765,2.908-1.274,4.591-1.274
			c3.313,0,8.619,2.039,8.619,10.556v14.687h-4.488v-14.177c0-3.978-1.479-7.343-5.711-7.343c-2.906,0-5.201,2.039-6.019,4.487
			c-0.256,0.612-0.307,1.274-0.307,2.142v14.891h-4.486V319.672L546.134,319.672z"/>
		<path d="M596.774,343.333c0,9.128-6.324,13.105-12.291,13.105c-6.681,0-11.83-4.896-11.83-12.697
			c0-8.262,5.403-13.105,12.237-13.105C591.979,330.636,596.774,335.786,596.774,343.333z M577.192,343.588
			c0,5.405,3.108,9.485,7.495,9.485c4.283,0,7.496-4.028,7.496-9.587c0-4.182-2.092-9.485-7.395-9.485
			S577.192,338.896,577.192,343.588z"/>
		<path d="M623.091,349.146c0,2.55,0.051,4.794,0.203,6.731h-3.979l-0.255-4.028h-0.102c-1.174,1.988-3.773,4.589-8.16,4.589
			c-3.875,0-8.516-2.142-8.516-10.811v-14.432h4.488v13.667c0,4.691,1.428,7.853,5.506,7.853c3.01,0,5.1-2.091,5.916-4.079
			c0.256-0.663,0.407-1.479,0.407-2.295v-15.146h4.488v17.951H623.091z"/>
		<path d="M630.538,338.896c0-2.906-0.051-5.405-0.205-7.7h3.928l0.152,4.845h0.203c1.123-3.314,3.826-5.405,6.834-5.405
			c0.51,0,0.867,0.051,1.274,0.152v4.233c-0.459-0.103-0.918-0.153-1.528-0.153c-3.162,0-5.406,2.396-6.019,5.763
			c-0.104,0.611-0.205,1.325-0.205,2.091v13.156h-4.436L630.538,338.896L630.538,338.896z"/>
		<path d="M646.604,351.288c1.325,0.867,3.672,1.785,5.916,1.785c3.264,0,4.793-1.632,4.793-3.672c0-2.142-1.275-3.314-4.591-4.538
			c-4.436-1.581-6.526-4.029-6.526-6.986c0-3.978,3.213-7.241,8.516-7.241c2.5,0,4.691,0.714,6.068,1.529l-1.121,3.264
			c-0.969-0.611-2.754-1.428-5.049-1.428c-2.652,0-4.131,1.53-4.131,3.366c0,2.039,1.479,2.957,4.69,4.182
			c4.283,1.632,6.478,3.773,6.478,7.444c0,4.335-3.365,7.395-9.23,7.395c-2.701,0-5.201-0.663-6.934-1.683L646.604,351.288z"/>
	</g>
	<g>
		<path d="M236.674,272.468c0-4.182,2.499-7.14,6.578-8.873l-0.051-0.153c-3.672-1.733-5.252-4.589-5.252-7.445
			c0-5.252,4.437-8.822,10.25-8.822c6.425,0,9.638,4.029,9.638,8.159c0,2.805-1.377,5.813-5.457,7.752v0.152
			c4.131,1.632,6.681,4.539,6.681,8.567c0,5.763-4.946,9.638-11.27,9.638C240.855,281.442,236.674,277.313,236.674,272.468z
			 M254.522,272.264c0-4.028-2.805-5.967-7.293-7.241c-3.875,1.122-5.966,3.672-5.966,6.833c-0.153,3.366,2.396,6.323,6.629,6.323
			C251.922,278.179,254.522,275.681,254.522,272.264z M242.182,255.69c0,3.314,2.498,5.1,6.323,6.119
			c2.855-0.969,5.048-3.009,5.048-6.018c0-2.651-1.58-5.405-5.609-5.405C244.221,250.387,242.182,252.835,242.182,255.69z"/>
		<path d="M275.483,244.676h4.487v15.4h0.103c0.714-1.275,1.836-2.397,3.212-3.162c1.326-0.765,2.907-1.274,4.59-1.274
			c3.314,0,8.618,2.039,8.618,10.556v14.687h-4.487v-14.177c0-3.978-1.479-7.343-5.712-7.343c-2.906,0-5.201,2.039-6.017,4.487
			c-0.256,0.612-0.307,1.274-0.307,2.142v14.891h-4.487V244.676z"/>
		<path d="M326.124,268.337c0,9.128-6.323,13.105-12.29,13.105c-6.681,0-11.831-4.896-11.831-12.697
			c0-8.262,5.405-13.105,12.239-13.105C321.33,255.64,326.124,260.79,326.124,268.337z M306.542,268.592
			c0,5.405,3.11,9.485,7.496,9.485c4.283,0,7.496-4.028,7.496-9.587c0-4.182-2.091-9.485-7.396-9.485
			C308.837,259.005,306.542,263.9,306.542,268.592z"/>
		<path d="M352.44,274.15c0,2.55,0.051,4.794,0.202,6.731h-3.978l-0.255-4.028h-0.103c-1.173,1.988-3.772,4.589-8.158,4.589
			c-3.876,0-8.518-2.142-8.518-10.811V256.2h4.488v13.667c0,4.691,1.428,7.853,5.507,7.853c3.009,0,5.1-2.091,5.916-4.079
			c0.255-0.663,0.407-1.479,0.407-2.295V256.2h4.488v17.95H352.44z"/>
		<path d="M359.888,263.9c0-2.906-0.051-5.405-0.204-7.7h3.928l0.152,4.845h0.203c1.122-3.314,3.825-5.405,6.834-5.405
			c0.51,0,0.867,0.051,1.274,0.152v4.233c-0.459-0.103-0.918-0.153-1.529-0.153c-3.162,0-5.405,2.396-6.018,5.763
			c-0.104,0.611-0.204,1.325-0.204,2.091v13.156h-4.438L359.888,263.9L359.888,263.9z"/>
		<path d="M375.952,276.292c1.326,0.867,3.672,1.785,5.916,1.785c3.264,0,4.793-1.632,4.793-3.672c0-2.142-1.274-3.314-4.589-4.538
			c-4.438-1.581-6.527-4.029-6.527-6.986c0-3.978,3.212-7.241,8.516-7.241c2.499,0,4.691,0.714,6.068,1.529l-1.122,3.264
			c-0.969-0.611-2.753-1.428-5.048-1.428c-2.652,0-4.131,1.53-4.131,3.366c0,2.039,1.479,2.957,4.69,4.182
			c4.283,1.632,6.478,3.773,6.478,7.444c0,4.335-3.366,7.395-9.23,7.395c-2.702,0-5.201-0.663-6.935-1.683L375.952,276.292z"/>
	</g>
	<rect x="207.382" y="607.96" fill="#3ABFEF" width="53.998" height="53.998"/>
	<rect x="207.382" y="673.956" fill="#005893" width="53.998" height="53.998"/>
	<rect x="207.382" y="738.622" fill="#064368" width="53.998" height="53.998"/>
	<path opacity="0.25" enable-background="new    " d="M302.358,523.121L449.28,320.899L241.942,460.545
		C241.942,460.545,266.941,499.364,302.358,523.121z"/>
	<g>
		<path fill="#3ABFEF" d="M141.824,500.405h-0.08l-4.519,2.438l-0.68-2.68l5.679-3.04h3v25.996h-3.399L141.824,500.405
			L141.824,500.405z"/>
		<path fill="#3ABFEF" d="M164.304,494.726h3.52v12.078h0.08c0.56-1,1.439-1.88,2.52-2.479c1.04-0.601,2.279-1,3.599-1
			c2.6,0,6.759,1.6,6.759,8.278v11.519h-3.52v-11.118c0-3.119-1.16-5.759-4.479-5.759c-2.279,0-4.079,1.6-4.719,3.52
			c-0.2,0.479-0.24,0.999-0.24,1.681v11.678h-3.52V494.726z"/>
		<path fill="#3ABFEF" d="M204.021,513.283c0,7.158-4.959,10.276-9.638,10.276c-5.239,0-9.279-3.839-9.279-9.958
			c0-6.479,4.24-10.277,9.599-10.277C200.262,503.324,204.021,507.363,204.021,513.283z M188.664,513.482
			c0,4.238,2.439,7.438,5.879,7.438c3.359,0,5.879-3.16,5.879-7.52c0-3.279-1.64-7.438-5.799-7.438S188.664,509.804,188.664,513.482
			z"/>
		<path fill="#3ABFEF" d="M224.661,517.842c0,2,0.04,3.76,0.16,5.279h-3.12l-0.2-3.159h-0.08c-0.92,1.56-2.959,3.599-6.399,3.599
			c-3.04,0-6.679-1.68-6.679-8.479v-11.317h3.52v10.719c0,3.68,1.12,6.158,4.319,6.158c2.36,0,4-1.64,4.639-3.198
			c0.2-0.521,0.32-1.16,0.32-1.801v-11.878h3.52V517.842z"/>
		<path fill="#3ABFEF" d="M230.503,509.804c0-2.279-0.04-4.238-0.16-6.039h3.079l0.12,3.8h0.16c0.88-2.601,3-4.239,5.359-4.239
			c0.4,0,0.68,0.04,1,0.12v3.318c-0.36-0.08-0.72-0.12-1.2-0.12c-2.48,0-4.239,1.881-4.719,4.521c-0.08,0.479-0.16,1.04-0.16,1.64
			v10.318h-3.479V509.804z"/>
	</g>
</g>
<g>
	<path fill="#3ABFEF" d="M285.997,647.355l-3.404,10.311h-4.376l11.136-32.777h5.106l11.185,32.777h-4.522l-3.501-10.311H285.997z
		 M296.744,644.049l-3.209-9.434c-0.729-2.142-1.216-4.086-1.702-5.982h-0.097c-0.486,1.945-1.021,3.939-1.653,5.935l-3.209,9.481
		H296.744z"/>
	<path fill="#3ABFEF" d="M310.994,634.129l3.112,11.963c0.681,2.625,1.313,5.058,1.751,7.488h0.146
		c0.535-2.383,1.313-4.91,2.091-7.439l3.842-12.012h3.6l3.646,11.768c0.875,2.82,1.557,5.302,2.092,7.685h0.146
		c0.389-2.383,1.021-4.863,1.799-7.635l3.355-11.816h4.23l-7.586,23.537h-3.89l-3.6-11.234c-0.826-2.625-1.507-4.959-2.091-7.731
		h-0.097c-0.583,2.82-1.313,5.252-2.14,7.781l-3.793,11.186h-3.892l-7.1-23.537h4.377V634.129z"/>
	<path fill="#3ABFEF" d="M357.923,657.666l-0.34-2.967h-0.146c-1.313,1.848-3.843,3.502-7.197,3.502
		c-4.767,0-7.197-3.355-7.197-6.76c0-5.689,5.058-8.804,14.151-8.754v-0.486c0-1.945-0.535-5.447-5.351-5.447
		c-2.188,0-4.474,0.682-6.127,1.752l-0.972-2.82c1.945-1.266,4.766-2.092,7.731-2.092c7.197,0,8.948,4.912,8.948,9.629v8.804
		c0,2.041,0.098,4.034,0.39,5.641L357.923,657.666L357.923,657.666z M357.292,645.654c-4.668-0.099-9.969,0.729-9.969,5.301
		c0,2.771,1.848,4.084,4.036,4.084c3.063,0,5.009-1.945,5.689-3.939c0.146-0.438,0.243-0.924,0.243-1.36V645.654L357.292,645.654z"
		/>
	<path fill="#3ABFEF" d="M372.563,644.924h0.097c0.583-0.826,1.41-1.848,2.091-2.674l6.905-8.121h5.154l-9.094,9.678l10.358,13.859
		h-5.203l-8.121-11.283l-2.188,2.433v8.852h-4.231V623.14h4.231V644.924z"/>
	<path fill="#3ABFEF" d="M393.521,646.676c0.099,5.787,3.794,8.17,8.073,8.17c3.063,0,4.912-0.535,6.518-1.217l0.729,3.064
		c-1.507,0.68-4.084,1.459-7.829,1.459c-7.246,0-11.574-4.767-11.574-11.865c0-7.102,4.183-12.693,11.039-12.693
		c7.685,0,9.727,6.761,9.727,11.088c0,0.875-0.097,1.558-0.146,1.994H393.521L393.521,646.676z M406.069,643.611
		c0.048-2.724-1.119-6.953-5.934-6.953c-4.328,0-6.225,3.986-6.564,6.953H406.069z"/>
</g>
<g>
	<path fill="#005893" d="M280.113,722.799c1.896,1.168,4.668,2.142,7.586,2.142c4.328,0,6.856-2.287,6.856-5.595
		c0-3.063-1.75-4.813-6.176-6.516c-5.349-1.896-8.656-4.668-8.656-9.289c0-5.105,4.231-8.898,10.602-8.898
		c3.355,0,5.787,0.777,7.246,1.604l-1.167,3.453c-1.07-0.584-3.258-1.556-6.225-1.556c-4.474,0-6.176,2.675-6.176,4.91
		c0,3.064,1.994,4.572,6.517,6.322c5.544,2.141,8.364,4.814,8.364,9.629c0,5.058-3.745,9.435-11.477,9.435
		c-3.161,0-6.614-0.925-8.364-2.091L280.113,722.799z"/>
	<path fill="#005893" d="M304.526,693.426h4.28v34.527h-4.28V693.426z"/>
	<path fill="#005893" d="M318.385,716.963c0.099,5.787,3.793,8.17,8.073,8.17c3.063,0,4.912-0.535,6.517-1.215l0.729,3.063
		c-1.507,0.683-4.084,1.459-7.829,1.459c-7.246,0-11.574-4.766-11.574-11.864c0-7.1,4.183-12.691,11.039-12.691
		c7.685,0,9.727,6.758,9.727,11.086c0,0.877-0.098,1.558-0.146,1.994L318.385,716.963L318.385,716.963z M330.932,713.9
		c0.049-2.726-1.118-6.955-5.933-6.955c-4.328,0-6.225,3.987-6.565,6.955H330.932z"/>
	<path fill="#005893" d="M342.75,716.963c0.098,5.787,3.793,8.17,8.073,8.17c3.063,0,4.912-0.535,6.517-1.215l0.729,3.063
		c-1.507,0.683-4.084,1.459-7.829,1.459c-7.246,0-11.574-4.766-11.574-11.864c0-7.1,4.182-12.691,11.039-12.691
		c7.684,0,9.726,6.758,9.726,11.086c0,0.877-0.097,1.558-0.146,1.994L342.75,716.963L342.75,716.963z M355.296,713.9
		c0.048-2.726-1.119-6.955-5.933-6.955c-4.328,0-6.226,3.987-6.565,6.955H355.296z"/>
	<path fill="#005893" d="M364.731,712.1c0-3.014-0.098-5.444-0.194-7.684h3.842l0.194,4.037h0.097
		c1.751-2.869,4.523-4.57,8.365-4.57c5.688,0,9.969,4.813,9.969,11.963c0,8.461-5.155,12.644-10.698,12.644
		c-3.111,0-5.836-1.361-7.246-3.695h-0.097v12.789h-4.23L364.731,712.1L364.731,712.1z M368.962,718.373
		c0,0.633,0.097,1.217,0.194,1.752c0.777,2.965,3.354,5.008,6.419,5.008c4.521,0,7.147-3.695,7.147-9.094
		c0-4.717-2.479-8.754-7.002-8.754c-2.918,0-5.641,2.092-6.468,5.301c-0.146,0.535-0.292,1.168-0.292,1.752L368.962,718.373
		L368.962,718.373z"/>
	<path fill="#005893" d="M397.168,697.803c0.048,1.459-1.021,2.627-2.724,2.627c-1.507,0-2.577-1.168-2.577-2.627
		c0-1.508,1.118-2.674,2.674-2.674C396.146,695.129,397.168,696.295,397.168,697.803z M392.402,727.953v-23.537h4.279v23.537
		H392.402z"/>
	<path fill="#005893" d="M403.782,710.787c0-2.432-0.048-4.426-0.194-6.371h3.793l0.243,3.891h0.097
		c1.167-2.235,3.892-4.424,7.781-4.424c3.258,0,8.316,1.943,8.316,10.019v14.053h-4.279v-13.566c0-3.793-1.41-6.955-5.447-6.955
		c-2.819,0-5.009,1.994-5.738,4.377c-0.193,0.535-0.291,1.265-0.291,1.994v14.15h-4.28V710.787L403.782,710.787z"/>
	<path fill="#005893" d="M451.051,704.416c-0.097,1.703-0.193,3.6-0.193,6.469v13.664c0,5.398-1.069,8.705-3.355,10.748
		c-2.285,2.139-5.592,2.82-8.559,2.82c-2.82,0-5.934-0.683-7.829-1.945l1.069-3.258c1.557,0.973,3.988,1.848,6.905,1.848
		c4.377,0,7.587-2.285,7.587-8.219v-2.625h-0.098c-1.313,2.188-3.842,3.938-7.489,3.938c-5.835,0-10.017-4.959-10.017-11.478
		c0-7.975,5.204-12.496,10.601-12.496c4.085,0,6.322,2.14,7.343,4.084h0.099l0.193-3.551H451.051z M446.626,713.705
		c0-0.729-0.049-1.361-0.243-1.945c-0.777-2.479-2.869-4.521-5.98-4.521c-4.085,0-7.003,3.451-7.003,8.897
		c0,4.619,2.334,8.461,6.954,8.461c2.625,0,5.009-1.651,5.933-4.377c0.243-0.729,0.341-1.555,0.341-2.285L446.626,713.705
		L446.626,713.705z"/>
</g>
<g>
	<path fill="#D0ECF4" stroke="#009DC1" stroke-miterlimit="10" d="M280.696,760.281c1.848-0.39,4.766-0.683,7.732-0.683
		c4.23,0,6.954,0.73,8.996,2.384c1.702,1.266,2.724,3.211,2.724,5.786c0,3.162-2.091,5.935-5.544,7.197v0.099
		c3.112,0.776,6.759,3.354,6.759,8.219c0,2.82-1.118,4.959-2.771,6.563c-2.286,2.093-5.981,3.064-11.331,3.064
		c-2.917,0-5.155-0.195-6.565-0.391V760.281z M284.927,773.703h3.842c4.474,0,7.1-2.334,7.1-5.496c0-3.842-2.917-5.35-7.197-5.35
		c-1.945,0-3.064,0.146-3.745,0.293L284.927,773.703L284.927,773.703z M284.927,789.41c0.827,0.146,2.042,0.195,3.55,0.195
		c4.377,0,8.413-1.605,8.413-6.371c0-4.476-3.842-6.322-8.461-6.322h-3.501L284.927,789.41L284.927,789.41z"/>
	<path fill="#D0ECF4" stroke="#009DC1" stroke-miterlimit="10" d="M328.403,780.656c0,8.705-6.03,12.498-11.721,12.498
		c-6.369,0-11.282-4.668-11.282-12.109c0-7.877,5.154-12.496,11.671-12.496C323.832,768.549,328.403,773.459,328.403,780.656z
		 M309.729,780.9c0,5.153,2.968,9.045,7.149,9.045c4.085,0,7.148-3.842,7.148-9.144c0-3.987-1.994-9.045-7.052-9.045
		C311.918,771.757,309.729,776.426,309.729,780.9z"/>
	<path fill="#D0ECF4" stroke="#009DC1" stroke-miterlimit="10" d="M338.957,762.324v6.758h6.127v3.26h-6.127v12.691
		c0,2.918,0.827,4.572,3.209,4.572c1.119,0,1.945-0.146,2.48-0.294l0.193,3.209c-0.827,0.343-2.14,0.584-3.793,0.584
		c-1.994,0-3.599-0.631-4.62-1.799c-1.215-1.264-1.652-3.354-1.652-6.127v-12.838h-3.647v-3.26h3.647v-5.642L338.957,762.324z"/>
	<path fill="#D0ECF4" stroke="#009DC1" stroke-miterlimit="10" d="M349.899,758.092h4.279v14.688h0.098
		c0.681-1.218,1.75-2.287,3.063-3.017c1.265-0.729,2.772-1.215,4.377-1.215c3.161,0,8.218,1.943,8.218,10.064v14.006h-4.278V779.1
		c0-3.793-1.41-7.002-5.447-7.002c-2.772,0-4.96,1.945-5.738,4.279c-0.243,0.584-0.292,1.217-0.292,2.043v14.199h-4.279
		L349.899,758.092L349.899,758.092z"/>
</g>
</svg>
